<svg xmlns="http://www.w3.org/2000/svg" viewBox="0 0 511.06 472.36"><defs><style>.cls-1{fill:#e30613;}</style></defs><title>farmer</title><g id="Layer_2" data-name="Layer 2"><g id="Layer_1-2" data-name="Layer 1"><path class="cls-1" d="M28,472.09a148.37,148.37,0,0,0,15.5.06,9.81,9.81,0,0,0,9.9-9.77c.11-5.66-4.11-10-10-10.15-4.32-.12-8.67.16-13-.12a11.8,11.8,0,0,1-11.32-11.22c-.14-6,4.84-11.1,11.42-11.65,1.49-.12,3-.05,4.49-.05h92c10.47,0,13.55-3.1,13.56-13.79q0-28.5,0-57c0-1.77.15-3.54.21-4.92h30.1a9.14,9.14,0,0,1,.58,2c-.06,22,.28,44-.36,66-.44,14.8-12.31,27.52-27,29.76-7,1.07-14.27.66-21.4,1.06a10.18,10.18,0,0,0-9.42,9.35c-.35,4.72,3.49,10.18,8.25,10.37,8,.32,16.13.87,23.92-.45,28.51-4.84,46.43-26.63,46.5-55.56.05-19,0-38,0-57,0-1.75.17-3.5.26-5.27h35.91v5.63c0,26.83-.06,53.66,0,80.49,0,17.74,13.39,32,30.06,32.36,18.65.39,32.84-12.48,33-31.22.3-37.66.39-75.33-.27-113-.46-26.26-24.41-49.2-50.71-49.73-15.16-.31-30.33-.14-45.49-.19h-5.31V253.23c.53-.06.69-.09.86-.09,28.82,0,57.66-.13,86.48,0,10.61.06,21-.09,30.2-8,1.87,23.91,10.81,43.56,28.31,58.91s38.38,21.82,61.53,20.23v52.39c-11.19,2.49-20.17,8.09-28,16-19.68,19.91-39.56,39.62-59.35,59.43a33.72,33.72,0,0,0-3.72,4,10,10,0,0,0,.82,12.44,9.66,9.66,0,0,0,12.67,1.74,28.88,28.88,0,0,0,4.49-3.94q29.55-29.49,59.06-59c15.59-15.54,33.63-15.54,49.13-.05q30.4,30.4,60.82,60.79c5.07,5.05,11.18,5.4,15.45,1.13s3.9-10.38-1.16-15.45q-31.59-31.68-63.28-63.27c-6.12-6.1-13.32-10.64-21.75-12.63-4-.93-4.73-2.79-4.72-6.53.14-39.5.08-79,.08-118.49V248c7.54-.68,14.39-.8,21-2,40.24-7.11,68.4-49.79,59.3-89.48-1.2-5.23-4.06-8.39-9.57-9.44-25.1-4.77-47.09,1.5-66.24,18.23-1.27,1.1-2.55,2.18-4.54,3.88,0-15.7.18-30.19-.1-44.66a12.86,12.86,0,0,1,4.58-10.73c29.24-27.29,25.81-74.27-6.88-96.69-6-4.12-9.11-4.15-15-.15-32.51,21.93-36.58,69.75-7.65,96.24,5.68,5.19,4.88,10.21,4.54,16.78-1.31-1.12-2-1.75-2.79-2.37q-24.87-20.76-56.82-15.3c-6.27,1.08-8.89,3.71-10.2,9.92-7.35,35.12,15.24,70.76,50.2,78.79,6.4,1.47,13,1.86,19.57,2.75v37.85c-21-21.91-47.81-31.09-78.48-25.84a6.62,6.62,0,0,1-.69-1.22c-6-18.4-16.14-25.87-35.36-25.9-17.5,0-35-.26-52.49.15-5.8.13-9.18-1.71-12.69-6.34-12.7-16.73-22.67-35.69-39.45-49.13.21-.3.34-.69.6-.82,19.82-10.28,28.83-26.69,28-48.85-.24-6.1,0-12.22,0-18.73,4.94,0,9.25.05,13.55,0,7.21-.11,11.85-4,12-10S227,44.66,219.56,44.49c-3.43-.08-6.86,0-10.62,0,0-5.87.09-11,0-16.15A28.43,28.43,0,0,0,180.42.21C165.26.15,150.07.78,134.94,0c-14.4-.71-31,10.19-30.73,30.73.07,4.43,0,8.87,0,13.71-4,0-7.29-.07-10.59,0-7.34.19-11.7,4-11.76,10.13C81.82,61,86.29,64.88,93.87,65c4.95.06,9.9,0,15.5,0-.72,22.92-2.29,45.72,18.55,61.63-25.58,10.6-39.21,29-39.44,56.32-.29,35.33-.2,70.66,0,106,.12,22.93,9.75,41,28.58,54.26a8.42,8.42,0,0,1,2.95,6c.22,18.5.13,37,.11,55.49,0,1.43-.2,2.86-.32,4.56H114c-27.83,0-55.66-.05-83.49,0-12.87,0-22.07,6.29-28.26,17.34C1.52,427.79.74,429,0,430.19v21c.82,1.37,1.68,2.71,2.47,4.1C8.11,465.26,16.5,471.19,28,472.09ZM429.24,187.15c11.51-14.49,26.63-21.62,45.22-21.19,2.53.06,4.46.14,4.55,3.6,1,37.49-32,61.39-61.22,57.16C416.31,212,420,198.73,429.24,187.15Zm-21.9-150c18.66,16.71,18.57,47.56,0,62.14C388.45,86.21,388.29,52.39,407.34,37.17Zm-60.9,94.94c26.06-3.82,53.07,20.59,50.33,50C370.35,187.22,341.94,158.84,346.44,132.11ZM328.12,235.42c39.34-5.69,73.94,30.17,68.24,68.18C358.23,309.42,322.52,274.54,328.12,235.42Zm-144-137.31c-4.51,13.21-17.44,20.43-31.72,18.14-12.55-2-22.26-13.31-22.61-26.63-.21-8,0-15.92,0-24.43H186C185.37,76.2,187.83,87.32,184.15,98.11ZM124.86,44.19c0-5.71-.23-11.17.07-16.59.26-4.54,3.76-7.33,9.07-7.37q22.73-.15,45.47,0c5.56.05,8.83,3.09,9.18,8.52.33,4.95.07,9.93.07,15.43Zm-16,228.67q0-45,0-90c0-20.65,12.35-35.43,32.68-38.13,14.21-1.89,25.75,3.89,34.25,15.31q15.66,21,30.85,42.43c3.31,4.67,7.29,6.72,13,6.67,21.83-.17,43.66-.12,65.5,0,9.53,0,15.67,8.64,11.43,16.55-1.52,2.85-5.11,4.82-8.12,6.57-1.55.9-3.9.59-5.89.59-27.16,0-54.33.1-81.49-.11a11.36,11.36,0,0,1-7.18-3.13c-5.28-5.31-10.07-11.1-15-16.71-5.31-6-11.27-6.92-16.05-2.57s-4.6,10.38.83,15.81c4.08,4.06,5.65,8.38,5.45,14.15-.42,12.31-.13,24.64-.13,37.55h-59.8C109.05,276.07,108.87,274.47,108.87,272.86Zm1.59,29.22a36.76,36.76,0,0,1-.63-3.92H115q60,0,120,0c21.66,0,36.05,14.34,36.07,35.92q0,52.76,0,105.49c0,4.94-1.77,8.77-6.14,11.14a10.55,10.55,0,0,1-11.37-.56c-4.26-2.74-5.29-7-5.29-11.71q0-19.5,0-39c0-17.66,0-35.33,0-53,0-10-3.28-13.22-13.12-13.22-27.83,0-55.66.06-83.49,0A43.07,43.07,0,0,1,110.46,302.08Z"/><path class="cls-1" d="M83.47,452.21a10,10,0,1,0,0,20,10,10,0,0,0,0-20Z"/></g></g></svg>