<svg xmlns="http://www.w3.org/2000/svg" viewBox="0 0 512 512.2"><defs><style>.cls-1{fill:#e30613;}</style></defs><title>input</title><g id="Layer_2" data-name="Layer 2"><g id="Layer_1-2" data-name="Layer 1"><path class="cls-1" d="M482.91,402.49c-4.92-19.3-24.74-28.13-42.48-19.07a6.64,6.64,0,0,1-5.17.19c-9.51-4.68-18.83-4.71-28.27.1-1.11.57-3,1-3.89.41-7.08-4.38-14.76-4.5-23.13-3.47,0-8.86-.2-17.5.1-26.12a26.9,26.9,0,0,1,2.17-10,156.11,156.11,0,0,0,12.93-44.83,6.67,6.67,0,0,1,4-4.42c14.11-3.82,28.36-7.11,42.47-10.89,15.69-4.21,23.75-17.73,19.89-33.28q-14.25-57.54-28.76-115c-2.58-10.19-9.24-17-19.47-19.38-3.67-.86-4.64-2.56-5.44-5.67-3.38-13.13-13.76-20.8-27.31-19.78-4.38.33-8.73,1.88-13,3.27-15.07,5-20.88,13-20.71,28.89,0,4.27-.45,7.22-4.83,9.61-6.22,3.39-9.77,9.33-11.17,16.4-.31,1.59-.82,3.14-1.52,5.8-1.82-1.5-3.68-2.27-4.24-3.6a146.14,146.14,0,0,1-11-52.39c5.56,0,10.85.06,16.13,0,9.68-.14,16.51-7,16.67-16.79.09-5,.05-10,0-15-.07-10.64-6.62-17.44-17.31-17.94-2.79-.13-5.59,0-8.7,0-1.38-8.16-3.1-15.8-3.9-23.53C315.19,8,303.05-.66,287.76,0c-16.46.76-33,.16-49.49.17C223.81.22,214.19,8.66,212,23c-1.31,8.68-2.88,17.31-4.43,26.53-3.13,0-6.1-.14-9.05,0-10.07.58-16.46,6.79-16.9,16.76a147.75,147.75,0,0,0,.17,18c.71,9,7.32,14.82,16.28,15,5.29.09,10.59,0,16.52,0,0,2.25,0,4,0,5.82.07,8.5-.2,17,.29,25.49a36.18,36.18,0,0,0,28.51,33.65c4.94,1.14,10.17,1,15.58,1.47,1.3,6.29,2.85,12.76,3.84,19.3.24,1.56-1,3.77-2.18,5-7.06,7.31-14.17,14.59-21.61,21.51a12.62,12.62,0,0,1-7.73,3.18c-19.92.26-39.85.15-60.37.15-.5-1.57-1.29-4.26-2.2-6.91-3.95-11.51-13.4-18.9-25.4-17.44-7.95,1-15.53,4.95-23.8,7.77,3.09,6.1,5.52,10.87,8,15.82l10.75-5.28c7.62-3.71,12.35-1.78,15,6.13.78,2.36,1.4,4.79,2.37,7.08,1.14,2.72.65,4.76-1.08,7.24-11.47,16.36-6.17,39.17,11.88,47.61,6.46,3,9.37,7,10.64,13.27a34.64,34.64,0,0,0,1.14,3.81c9.45,29.22,27.89,50.3,56.34,62.32,4.36,1.85,10.71,2.38,12.65,5.62,2.2,3.66.47,9.68.44,14.68a7.67,7.67,0,0,1-11.43,6.67c-16.74-8.68-36.22-.35-41.53,17.81-1.15,3.93-2.11,7.91-3.16,11.85H155.26c-1-3.89-1.95-7.6-3-11.28-5.31-18.78-24.78-27.15-42.09-18.29a7.22,7.22,0,0,1-5.59,0c-8.83-4.17-17.67-4.65-26.43-.27-2.8,1.4-4.73,1.53-7.6,0C54.21,374.68,35,383,29.68,400.59a65.44,65.44,0,0,0-2.37,9.15c-.41,2.78-1.7,3.49-4.31,3.45-7.67-.11-15.33,0-23,0v42c.85,3.18,1.55,6.41,2.58,9.52,8.42,25.55,25.74,41.17,52.18,46.56a12.59,12.59,0,0,1,2.24.92h68c3-.82,6-1.58,8.95-2.47a66.56,66.56,0,0,0,36.59-26.8c.93-1.35,1.84-2.71,2.94-4.34,9.29,15.4,22.1,25.86,39.08,31,3.12.95,6.29,1.75,9.44,2.62h68c3.15-.87,6.31-1.68,9.44-2.62,17-5.1,29.76-15.62,39.13-31.07,6.85,11.31,15.48,20.49,27.13,26.05,6.77,3.24,14.18,5.14,21.3,7.64h68c5.51-1.68,11.26-2.83,16.5-5.14,21.74-9.61,35-26.16,39.57-49.61a11.75,11.75,0,0,1,.93-2.25v-42c-5.17,0-10.33-.05-15.5-.05C485.62,413.14,485.62,413.15,482.91,402.49ZM81.54,482.59,47.62,448.36l-11.53,12,34.59,34.39C36.92,499.37,12,468.42,17.23,430.55,51.9,422.54,88.38,451.76,81.54,482.59ZM43.71,413.83c1.55-6,1.28-12.75,8-15.75,11-4.94,16.05,4.56,22.46,10.05,5.76-3.9,8.64-11.26,16.81-11.18s10.88,7.56,17.07,11.42c2.18-2.39,4.3-5,6.68-7.29,8.09-7.85,18.58-5,21.56,5.75.61,2.22,1.14,4.47,1.77,7-20.57,3.93-36.16,14.87-47.25,32.93C79.81,428.7,64.36,417.86,43.71,413.83Zm91.47,77.58a42,42,0,0,1-22.79,3.71L146.66,461,134.3,448.53,100,483c-7.71-30.09,27.59-58.58,64.52-52.61C167.8,457.78,160.25,479.81,135.18,491.41Zm305.5-254.33c2,7,3.59,14.14,5.24,20.92-.46,5.13-2.74,8.75-7.42,10-16.7,4.29-33.46,8.36-50.21,12.44-4.32,1.06-7.89-.41-10.51-4-2.17-2.94-2.63-6.21-.5-9.27a6.49,6.49,0,0,1,4-2.66c11.82-1.18,19-7.66,22.71-18.71a6.24,6.24,0,0,1,3.73-3.56c9.66-2.4,19.38-4.55,29.13-6.55C438,235.44,440.46,236.29,440.68,237.08Zm-68.77,3.07a7.94,7.94,0,0,1,7.75-8.54,8.06,8.06,0,1,1,.44,16.11A7.87,7.87,0,0,1,371.91,240.15ZM372,110.8c2.35-.81,4.7-2.28,7-2.28,3.27,0,7,.41,9.66,2,1.83,1.06,2.67,4.39,3.09,6.85.1.57-3.23,2.08-5.14,2.58-7.34,2-14.74,3.66-22.44,5.54C362.73,116.36,364.4,113.42,372,110.8Zm-16.7,34.34q24.09-6.16,48.26-12c6.67-1.62,11.4.92,13,7.31,6.58,25.84,13,51.73,19.55,78.16-11.28,2.55-21.93,5-32.62,7.28a4.85,4.85,0,0,1-3.79-1.17c-12-11.83-22-13-36.5-3.79-1.9-7.61-3.77-15.06-5.63-22.5-3.34-13.35-6.71-26.7-10-40.06C345.89,151.48,348.49,146.87,355.28,145.14ZM229.81,21.87c.52-2.05,4.37-4.57,6.73-4.62,18.47-.38,37-.26,55.42-.18,5.18,0,7.16,3.65,7.93,8.07,1.35,7.85,2.53,15.72,3.87,24.12H224.58C226.28,39.87,227.56,30.75,229.81,21.87ZM198.49,82.23V66.68h131.3V82.23Zm33,17.4h15.39c3.39,12.18-1.58,17.41-15.39,15.42Zm14.05,47.88c-7.2-2.27-11.36-7.49-13.6-14.66,27.67-3.8,29.24-5.4,32.89-33.59h30.83c3.79,19,7.44,37.27,11,55.1l-29.33,16.81c-.66-3.17-1.72-7.14-2.21-11.18-.15-1.26,1-3,2-4,2.91-3.18,6-6.15,9-9.13L273.54,135a100.33,100.33,0,0,1-7.16,8C260.41,148.6,253.26,150,245.55,147.51Zm-30.48,84c6.73,0,13.33-.13,19.91.12,1.22,0,2.51,1.48,3.52,2.51,3.72,3.78,7.34,7.66,11,11.51l11.73-12.34c-3-2.68-6.53-5.84-10.21-9.14,1.46-1.78,2.1-2.7,2.88-3.49q18.36-18.39,36.75-36.75c10.74-10.65,23.56-15.11,38.66-12.85,3,.44,4.61,1.39,5.4,4.6,7.25,29.5,14.69,59,22,88.43a21.68,21.68,0,0,1,.26,3.63l-78.27,19.58c-1-3.75-1.89-7.2-2.94-11.2,26.89-10.13,36.45-36.27,53.39-56.19L315.35,210c-7.74,10.83-15.42,21.44-23,32.14-7.17,10.17-16.46,17.34-28.61,20.4a49.77,49.77,0,0,1-11.29,1.67c-12.3.21-24.6.08-37.42.08Zm81.7,105c.92,4.09.46,7.11-4.65,7.73-8.5,1-17,2.3-26.24,3.58a139.32,139.32,0,0,1,11.91-41.37,4.79,4.79,0,0,1,2.9-2.23q33.76-8.58,67.58-17a6,6,0,0,1,1.73.25c-6.89,19.78-17.74,36.21-36.22,47.13-4.5-15-10.94-23.44-21.3-27.66-2.32,4.62-4.68,9.28-7.22,14.33C291.3,324.89,295.25,329.81,296.77,336.48Zm.07,24.76v19.34c-8.26-1-16.06-.73-23.21,3.81-2,1.25-9.16-2.88-9.24-5.18-.15-5.11,0-10.23,0-14.92ZM178.12,263.8c-7.6-1-13.08-8.63-12.9-16.12A15.84,15.84,0,0,1,179.16,232c6-.66,12.17-.13,18.74-.13V264C191.21,264,184.56,264.67,178.12,263.8Zm14.1,17.44h67.56c1.07,4.29,2.32,8.9,3.28,13.57a7.39,7.39,0,0,1-.53,4.27,165.11,165.11,0,0,0-12.77,42.75c-.06.44-.47.82-.7,1.19C224.86,340.09,199.15,312.28,192.22,281.24Zm54.86,201.32c-11.37-11.56-22.61-23-34-34.55l-12.17,12.55,34.16,34.05c-31.7,6.33-58.76-27.29-52.66-64.2C218.77,423.88,252.08,450.56,247.08,482.56Zm-38.19-68.73c1.5-6.5,1.66-13.41,9-16.31,5.58-2.19,9.05-.43,21.54,10.46,5.56-3.45,8.35-10.93,16.37-11s11.1,7.2,17.34,11.46c2.23-2.44,4.24-4.9,6.5-7.1,8.48-8.24,19.06-5.29,22.09,6.12.52,1.91.9,3.86,1.46,6.31-20.34,4-36.05,14.73-47.16,33C245,428.74,229.45,417.73,208.89,413.83Zm68.25,81.26,34.4-34.17L298.88,449l-33.43,33.76c-2.91-8,1.42-23.57,9.09-33.52,14.08-18.25,33.54-21.17,54.75-19C336.9,471.05,308.62,497.43,277.14,495.09Zm44.2-82.17c-9.58-18.33-7.32-37.74-7.29-56.88a4.1,4.1,0,0,1,2-3c24.85-12.85,40.24-33.61,49.81-59.29.41-1.08.94-2.11,1.5-3.38,1.87,1.26,3.56,2.55,5.39,3.6s3.57,1.71,5.69,2.71c-1.39,15.35-6.23,29.68-12.69,43.62a30.81,30.81,0,0,0-2.5,10.88,137.9,137.9,0,0,0,0,19,92.65,92.65,0,0,1-7,42.73Zm91.15,69.32-33.93-34.17-12.05,12.49,34.36,34.16c-33.44,4.77-57.48-24.92-53.57-64.09C381.15,421.62,416.51,449.7,412.49,482.24ZM374,413.88c1.52-6.36,1.49-13.43,8.79-16.19,10.56-4,15.41,4.91,21.63,10.4,5.73-3.66,8.56-11.1,16.63-11.14s11,7.32,17.55,11.69c1.94-2.31,3.88-5,6.23-7.35,8.41-8.24,19.13-5.2,22,6.15.49,1.91.84,3.86,1.36,6.31-20.3,4.07-36,14.72-47.05,33C410.18,428.87,394.76,417.74,374,413.88Zm96.67,74.9c-8.41,5.21-17.75,7.3-29.08,6.33l34.77-34.64-11.74-11.74c-11.27,11.35-22.49,22.63-34,34.15-8.42-29.69,28.08-59.14,64-52.45C497.32,455.52,493.17,474.84,470.71,488.78Z"/><path class="cls-1" d="M67,301.79l14.63,8.13L123,235.45l-14.63-8.14Z"/><path class="cls-1" d="M109.17,181.85,26.43,165.31c-1.14,5.6-2.21,10.86-3.34,16.43l82.75,16.57C107,192.74,108,187.47,109.17,181.85Z"/><path class="cls-1" d="M96.13,207.05,29.87,231.9l6,15.65L102,222.7Z"/></g></g></svg>