<svg xmlns="http://www.w3.org/2000/svg" viewBox="0 0 145.89 77.34"><defs><style>.cls-1{fill:#fff;}.cls-2{fill:#95c11f;}</style></defs><title>Asset 2</title><g id="Layer_2" data-name="Layer 2"><g id="BACKGROUND"><path class="cls-1" d="M21.76,28.36c-1.88,1.26-3.18,3.51-4.08,6.17-.3.87-.6,1.63-.13,2.42a2.64,2.64,0,0,0,1,1.09c.76.34,1.59-.3,2.05-.71,1.2-1.08,2.81-1.74,3.39-3.6,1.86-1.51,2.59-4,3.78-6A20,20,0,0,0,29,23.79c.07-.21.21-.48.36-.54s.37.14.49.29a1.85,1.85,0,0,1,.52,1.7c-.21,1.12-.29,2.28-.4,3.42a3.86,3.86,0,0,1-1.1,2.46,5.28,5.28,0,0,0-.8,1.33c-.29.55.18.48.36.43,1.19-.3,2.33.11,3.5.1,1.4,0,2.14.86,2.42,2.58.31,1.92.57,3.84-.34,5.71.15,1.66-1,2.94-1.13,4.53a33.43,33.43,0,0,1-2.57,4.41,3.57,3.57,0,0,0-.37.7,3.52,3.52,0,0,0,1.28.26,1.31,1.31,0,0,0,.82-.75c.77-2.12,2.36-3.33,3.81-4.69a4.2,4.2,0,0,1,3.8-1.42c.56.12.74-.17.83-.78a10.76,10.76,0,0,1,.42-1.29c.09-.36,0-.91.53-.32a5.41,5.41,0,0,1,1.2,4.29,34.4,34.4,0,0,1-2.88,11.3,10.59,10.59,0,0,1-2.5,3.68c-.53.46-1.58,0-1.63,1.14A7.29,7.29,0,0,0,36,64.54a26,26,0,0,1,.43,9.23,15.37,15.37,0,0,1-.61,2.75,1.05,1.05,0,0,1-2.08-.22c-.09-1.39-.13-2.78-.14-4.18,0-3.15-.88-6.1-1.46-9.12,0-.13-.17-.23-.27-.34l-.3.42a13.43,13.43,0,0,1-3.2,3.76,13.77,13.77,0,0,1-7.56,2.93,7.69,7.69,0,0,1-4.93-2.24,14.66,14.66,0,0,1-1.8-1.81,18.57,18.57,0,0,1-1.18-2.67,2.93,2.93,0,0,1,.45-2.88,28,28,0,0,0,1.74-2.84,1.08,1.08,0,0,0-.17-.74c-1.35,0-2.39-1-3.54-1.52a7.77,7.77,0,0,1-4-4A25.88,25.88,0,0,0,5,47c-.6-1-.3-2.76.68-3.21a20.51,20.51,0,0,1,2.9-.84l.64-.21a5.54,5.54,0,0,0-.62-.49,13.68,13.68,0,0,1-3.23-2.6A15.41,15.41,0,0,1,3.14,37,31.63,31.63,0,0,1,.28,30.2,12,12,0,0,1,.3,25c.07-.48.6-.87.7-1.36.14-.66.34-.69.56-.2.4.86,1,.7,1.69.65a12.48,12.48,0,0,1,1.91.19c.68.07,1-.34.68-1.07-1.07-2.55-.93-5.35-1.07-8.08a29.88,29.88,0,0,1,.29-5.25A5.75,5.75,0,0,1,6.87,6.1c1.08-.93,2-1,2.83.27.69,1,1.84,1.78,1.81,3.35,1.16,1.62,1.62,3.65,2.34,5.53.21.56.47.19.52.05,1-2.38,2.8-3.75,4.48-5.32.63-.6,1.39-.52,2.1-.73s1.34.25,1.87.79a2,2,0,0,0,.34.22,2.67,2.67,0,0,0,.16-.6c0-.78-.07-1.56,0-2.33,0-.27-.24-.9.37-.83a1.41,1.41,0,0,1,.88.46,6.89,6.89,0,0,1,1.22,5,46.46,46.46,0,0,1-1.26,8.61,14.69,14.69,0,0,1-.72,1.63c-.21.52,0,.41.33.34a5,5,0,0,1,3.41.47c.51.25.86.49.84,1.13,0,.45,0,1-.63,1a1.49,1.49,0,0,0-.21,0,8.58,8.58,0,0,0-2.75.56A21.54,21.54,0,0,0,21.76,28.36ZM16.37,62.61a10.35,10.35,0,0,0,3.72,2.89,12.41,12.41,0,0,0,3,.33,4.35,4.35,0,0,0,1.7-.63c.88-.45,1.7-1.18,2.54-1.56a3.78,3.78,0,0,0,2.41-2.32c.13-.38.92-.44.52-1.09-.26-.42-.45-.95-1.05-1-.88-.14-1.72-.49-2.6-.61a17.71,17.71,0,0,0-6.36.15A8.39,8.39,0,0,0,16,60.89c-.34.33-.43.59-.12,1A7.81,7.81,0,0,1,16.37,62.61ZM7.3,46.53a1.76,1.76,0,0,0,.12.67A32.79,32.79,0,0,0,10,50.94a8.45,8.45,0,0,0,2.65,1.83,12.83,12.83,0,0,0,5.12.91,2.85,2.85,0,0,0,2-.76,6.61,6.61,0,0,0,1.23-2.57c.06-.19-.74-.68-1.13-1a11.34,11.34,0,0,0-3.9-2.05c-.45-.18-1,0-1.46-.21-2.23-1.16-4.64-.48-6.95-.76C7.58,46.29,7.52,46.37,7.3,46.53Zm9.81-20.72c.63-.9,1.7-1.45,2.41-2.72a32,32,0,0,0,3.57-11.35c.06-.41,0-.53-.4-.35-1.77.75-3.07,2.28-4.52,3.55-.16,1.15-1.2,1.65-1.55,2.69s-.85,1.92-1.17,2.92a31.18,31.18,0,0,0-1.11,6.86c0,.12.49.44.58.37C15.63,27.2,16.3,26.56,17.11,25.81ZM2.88,28.31c0,.44-.06.93.12,1.19.92,1.35,1.37,3,2.36,4.35C7.75,37,10.61,39,14.44,39c.34,0,.51,0,.33-.47s-.39-1.27-.6-1.89c-.3-.9-.41-2.11-1-2.62C12,33,10.82,31.93,9.57,31A15.14,15.14,0,0,0,3.5,28.34,3.83,3.83,0,0,0,2.88,28.31ZM27,37.81a9,9,0,0,0-.77,1.34c-.53,1.25-1,2.51-1.44,3.8a2.62,2.62,0,0,0,.8,3.15,3.67,3.67,0,0,1,1.37,1.31c.35.59.64.44,1,0,.15-.17.38-.28.5-.48A26.32,26.32,0,0,0,32.16,36.5c.1-1-.19-1.33-1-1.2A21.41,21.41,0,0,0,27,37.81ZM9.61,24l1.26.88c.21.15.42.33.63.49a8.14,8.14,0,0,0,.1-1c0-.53-.1-1.06-.11-1.59,0-.94.08-1.9,0-2.82a23.06,23.06,0,0,0-.58-2.84,15.16,15.16,0,0,0-.43-1.5,47,47,0,0,0-2.35-6c-.09-.19-.29-.3-.45-.44a3.81,3.81,0,0,0-.19.57C7,13.63,7.74,17.3,8.38,21A15,15,0,0,0,9.61,24ZM35.39,57.34a14.25,14.25,0,0,0,1-1.42,36.73,36.73,0,0,0,2-4.48,14.79,14.79,0,0,0,1.46-5.59,1.44,1.44,0,0,0-.17-.49c-.12.09-.33.16-.34.26-.1,1-.88,1.44-1.48,1.93-2,1.61-3,4-4.36,6.15a2,2,0,0,0,.13,2.72,2.47,2.47,0,0,1,.61,1.18c.07.32,0,.66.4.35C35,57.78,35.16,57.54,35.39,57.34Zm-7.73-2.56,0,0c-.39-.56-.76-1.15-1.18-1.68a2.07,2.07,0,0,0-.81-.6c-.56-.23-1.15-.38-1.73-.56-.14.64-.24,1.3-.44,1.91-.09.27-.41.43-.57.68-.3.47-.09.76.33.82a12,12,0,0,1,3.63.76c.66.32,1.38.52,2.07.78C28.51,56.21,28.09,55.49,27.66,54.78ZM21.89,42c.28-.62.76-1.33.64-1.5-.37-.55-.56.32-.9.4a6.8,6.8,0,0,0-.77.11c-.09,0-.14.24-.21.36ZM17,42.62c-.13-.19-.28-.55-.38-.52a2.57,2.57,0,0,0-.88.46c-.09.06-.1.27-.15.41.56.18,1.12.37,1.68.54,0,0,.13-.26.1-.33A3.62,3.62,0,0,0,17,42.62Z"/><path class="cls-2" d="M145.54,37.44c-.41-1.26-.23-3.26-1.73-3.61a2.72,2.72,0,0,1-.51-1.77,1.37,1.37,0,0,0,0-1.73c-1.14-2.11-2.86-2.9-4.35-4.15-.37-.31-1.52-.93-1.66,1-.06,1-.68.94-1.18.35s-.77-1-1.2-1.49a3.27,3.27,0,0,0-.83-.48c.28-.15.65-.2.83-.48a1.93,1.93,0,0,1,2.34-.88c1.12.27,2-.71,3-1,.37-.11.89-1,1-.84,1.44,1.53,2.3-.7,3.44-1,.69-.21.68-1.48.18-1.65-1.36-.44-1.29-1-.5-2.35,1.14-2,1-2.23,0-4.17-.31-.57-1.75-.78-.64-2.25-.63-1.17-1.23-2.34-.51-3.88,0,0-.11-.3-.19-.32a6,6,0,0,1-1.51-.41,8.84,8.84,0,0,1,.13-1.57c-1.44.92-1.46-2.1-2.63-1.93-.25-2-1.22-2-2.34-1.88s-2.37,0-3.56,0c-.65-2.07-2.08.84-2.78-.89-1.64.34-3.39-.78-5,.8a1.21,1.21,0,0,1-1.48-.18c-1-1-1.58-.49-2.52.22-1.32,1-2.82,1.92-4.38.32-.36-.38-1-.26-1.55-.22-3.7.28-7.4.6-11.11.91-.1,0-.26-.06-.32,0-1.28,1.68-2.87.51-4.28,1a10.66,10.66,0,0,1-4.61.9c-2.66-.35-5.18,1.61-7.86.92C85.92,6.23,84.22,5,83,5.85a6.26,6.26,0,0,1-2.4.74,4.39,4.39,0,0,0-.84.37h-.07C77,6.6,74.5,8.56,71.82,7.87c-1.28,1.52-3,.29-4.21,1.15a6.23,6.23,0,0,1-2.4.73c-.79.22-1.58.94-2.33.85-3.3-.42-6.24,2.56-9.54,1.92a13.5,13.5,0,0,1-3.53,1.63A5.93,5.93,0,0,1,48,13.87c-1-.34-1.83,1.87-2.74.13l-.35.16c0,.33,0,.67,0,1l.13.05a2.35,2.35,0,0,1,.53-.09A25.11,25.11,0,0,0,41.4,16.2a16.72,16.72,0,0,1-4.27.92A10.62,10.62,0,0,1,32.6,17c-1-.34-1.83,1.87-2.74.13l-.35.16,0,1,.12.05a2.44,2.44,0,0,1,.71-.1,3.32,3.32,0,0,1,2.38,1.27A7.65,7.65,0,0,1,34.39,25c0,.64,0,1.39,0,2.18,0,.18,0,.36,0,.54,1.28.32,3.12,1.48,4,5.33A25.41,25.41,0,0,1,39,36.68a2.89,2.89,0,0,1,2.34-1.42,3,3,0,0,1,2.27,1.22,11.58,11.58,0,0,1,2.52,7.46A48.8,48.8,0,0,1,44.63,57.2a18.29,18.29,0,0,1-1.69,4.42,26.26,26.26,0,0,0,6.2-.67c3.41-.9,7,.2,10.46-1,2.42-.79,5-.06,7.54-.91,2.73-.92,5.65-.71,8.48-1.1.68-.09,1.36-.89,2-.82S79,58.35,80,58.05c.62-.2,1.56.35,1.89-.11.85-1.22,1.8-.66,2.71-.88s1.77-.86,2.65-.86c3.08,0,6.06-1.63,9.17-1,.4.08,1,.15,1.23-.16,1.15-1.43,2.47-.6,3.7-.69.65,0,1.33.8,2,.8s1.33-.77,2-.82c1.84-.12,3.69.08,5.52-.07a53.76,53.76,0,0,0,5.59-.91c1.53-.31,3,.31,4.66-.75,1.4-.92,3.26.08,4.91-1,.61-.4,1.63-.1,1.78-.69,1.35-.19,2.69-.46,4-.73,1.53-.3,3,.32,4.66-.74,1.4-.92,3.26.07,4.91-1,.92-.61,2.76.39,1.19-2.49a6,6,0,0,0,.44-.64c.55-1.37.85-3.5,1.66-4C146.31,40.32,146,38.78,145.54,37.44ZM139.6,13.07c.07.1.22.23.2.3a3.55,3.55,0,0,1-.2.63l-.23-.34ZM137,1.92c.07.11.21.23.2.31a3.21,3.21,0,0,1-.2.62l-.23-.33Zm-5.21,24.15a3.55,3.55,0,0,1-.2-.63c0-.07.13-.2.2-.3a4.11,4.11,0,0,1,.21.62C132,25.84,131.86,26,131.79,26.07Z"/><path class="cls-1" d="M62.49,21.6a7.79,7.79,0,0,0,.71,1.52,3.08,3.08,0,0,1,.34,1.57,15.82,15.82,0,0,1,0,1.69c0,.21,0,.41,0,.62a1.68,1.68,0,0,1-.34.94c-.18.26-.37.51-.55.76-.27.4-.56.79-.85,1.17a3.12,3.12,0,0,1-2,1.17,4.51,4.51,0,0,1-1,.11,2.82,2.82,0,0,0-.65.08A1.34,1.34,0,0,0,57,32.65a5.35,5.35,0,0,0,.12,1.25q.09.38.15.75c.18,1.15.33,2.3.43,3.45a1.94,1.94,0,0,1-.15.95,1,1,0,0,1-.61.6,2.26,2.26,0,0,1-1.15.15,1.05,1.05,0,0,1-.93-.81c0-.13-.06-.27-.08-.41a12.4,12.4,0,0,0-.28-1.5,3.11,3.11,0,0,1-.09-.86.07.07,0,0,0,0,0,4.53,4.53,0,0,0-.12-1c-.14-.62-.26-1.25-.36-1.87,0-.21-.07-.42-.1-.62-.13-.72-.27-1.43-.44-2.13a4,4,0,0,1-.08-1.14,3.74,3.74,0,0,0-.22-1.72,3.14,3.14,0,0,1-.15-1.29A7.36,7.36,0,0,0,52.68,24c0-.26-.09-.51-.13-.77,0-.11,0-.21,0-.31l0-.22c0-.31-.1-.62-.16-.92a3.66,3.66,0,0,1,0-1.32,1,1,0,0,1,.59-.78,2.69,2.69,0,0,1,.67-.15l.25,0a3,3,0,0,0,.32-.06,11.05,11.05,0,0,0,2-.46A2.19,2.19,0,0,1,57.33,19a4.67,4.67,0,0,0,1.18.05,2.84,2.84,0,0,1,2.29.74l.59.52a4.32,4.32,0,0,1,.39.34A2.3,2.3,0,0,1,62.49,21.6ZM60.44,25a2.22,2.22,0,0,0-.32-1.35,4.59,4.59,0,0,0-.48-.61,2,2,0,0,0-1.21-.62l-.58-.06-.77-.09a2.92,2.92,0,0,0-.59,0,.72.72,0,0,0-.52.38,1,1,0,0,0-.12.38,5.16,5.16,0,0,0,0,1.36,5.34,5.34,0,0,1,.1,1,2.25,2.25,0,0,0,.11.77,3.49,3.49,0,0,1,.14.73c0,.05,0,.09,0,.13s0,.22,0,.33a.77.77,0,0,0,.12.28,1,1,0,0,0,1,.48,4.29,4.29,0,0,0,1.92-.67,1.77,1.77,0,0,0,.75-.89A4.81,4.81,0,0,0,60.44,25Z"/><path class="cls-1" d="M73.17,22.46a5.47,5.47,0,0,1,1.13,2.11,1.2,1.2,0,0,1,0,1,2.67,2.67,0,0,0-.14.36c0,.05,0,.11-.06.18a.69.69,0,0,1-.69.48,6,6,0,0,1-1.27-.14.9.9,0,0,1-.52-.33,2.31,2.31,0,0,1-.47-1,.4.4,0,0,1,0-.15c0-.1,0-.2-.08-.29a.85.85,0,0,0-.64-.65,1.48,1.48,0,0,0-1.49.4.62.62,0,0,0-.18.37l-.09.45a6,6,0,0,0-.11.84.08.08,0,0,0,0,0,.41.41,0,0,0,0,.22,2.73,2.73,0,0,1,.15.89v.09a9.16,9.16,0,0,0,.27,1.65V29c.22,1,.41,2,.56,3s.33,2.23.51,3.34c0,.27.09.54.14.81a1.64,1.64,0,0,1-.28,1.2.81.81,0,0,1-.42.33,4,4,0,0,1-1.28.24,1.58,1.58,0,0,1-.69-.15.6.6,0,0,1-.37-.46,10.89,10.89,0,0,0-.22-1.11,8.83,8.83,0,0,1-.25-1.54,2,2,0,0,0,0-.24c0-.2,0-.4-.08-.59l0-.13a1.86,1.86,0,0,0-.06-.34,6,6,0,0,1-.2-1.79c0-.3,0-.6,0-.89v-.09a.64.64,0,0,0-.15-.42,1.1,1.1,0,0,1-.17-.61c0-.19,0-.38,0-.56q-.14-1.66-.33-3.33-.09-.76-.21-1.53l0-.14a1.46,1.46,0,0,0-.1-.34,2.07,2.07,0,0,1-.12-.49,1.15,1.15,0,0,1,.89-1.3,3.58,3.58,0,0,1,1.78,0,1.43,1.43,0,0,0,1.11-.12,4.2,4.2,0,0,1,1.94-.46A3,3,0,0,1,73.17,22.46Z"/><path class="cls-1" d="M83.24,22.36a2.51,2.51,0,0,1,.55,1.06,7.87,7.87,0,0,1,.25,2c0,.67,0,1.34.07,2a1.52,1.52,0,0,1-.48,1.24,2.83,2.83,0,0,1-1,.61,1,1,0,0,1-.45.07,2.89,2.89,0,0,0-.93.1,10.65,10.65,0,0,1-1.1.21.84.84,0,0,0-.63.36.69.69,0,0,0-.15.55,1.86,1.86,0,0,1,0,.33l0,.15a2.74,2.74,0,0,1,0,1.14,1.37,1.37,0,0,0,.29,1,5.77,5.77,0,0,0,.82.89.72.72,0,0,0,1,0A1.8,1.8,0,0,0,82.29,33a.37.37,0,0,0,0-.12,2.88,2.88,0,0,1,.09-.4,1.11,1.11,0,0,1,1.28-.79,4.13,4.13,0,0,1,.63.14.54.54,0,0,1,.43.53,2.16,2.16,0,0,0,0,.36,2.56,2.56,0,0,1,0,.48,3.27,3.27,0,0,1-1.19,2.35,4.27,4.27,0,0,1-2,.89,4.79,4.79,0,0,1-4.12-1.17A4,4,0,0,1,76.52,34a.28.28,0,0,1,0-.08.91.91,0,0,1-.09-.41,1.94,1.94,0,0,1,0-.24c0-.43-.09-.87-.12-1.3,0-.62-.13-1.23-.24-1.85l-.06-.44c0-.39-.09-.79-.12-1.18,0-.14,0-.28,0-.41a18.37,18.37,0,0,0-.3-1.83,5.23,5.23,0,0,1-.12-.54c0-.22-.07-.43-.11-.64s0-.26-.07-.39a1.19,1.19,0,0,1,0-.53,8.73,8.73,0,0,1,.63-1.73,3.86,3.86,0,0,1,1.7-1.62,6.54,6.54,0,0,1,1.27-.49,3.76,3.76,0,0,1,2.86.34,3.27,3.27,0,0,1,1.07,1ZM81,24.61a1.55,1.55,0,0,0,0-.71,2.29,2.29,0,0,0-.17-.62,1.31,1.31,0,0,0-.48-.6,2.08,2.08,0,0,0-.72-.28.83.83,0,0,0-1,.73,4.28,4.28,0,0,0-.09.87,1.88,1.88,0,0,1-.07.53,1.88,1.88,0,0,0-.06.74A6.64,6.64,0,0,0,79,26.76a.58.58,0,0,0,.57.33l.66.06a.78.78,0,0,0,.68-.29A1.43,1.43,0,0,0,81,25.24.86.86,0,0,1,81,24.61Z"/><path class="cls-1" d="M88.52,21.94a5.16,5.16,0,0,1-.09.52,7.41,7.41,0,0,0-.2,1.56,5.32,5.32,0,0,0,.08.64s0,.07,0,.1.05.22.08.33c.06.27.12.54.2.82a14.1,14.1,0,0,1,.43,3c0,.55,0,1.11.09,1.68A3.27,3.27,0,0,0,89.59,32a1.64,1.64,0,0,0,1.56.79,1,1,0,0,0,.74-.43.66.66,0,0,0,.12-.43.59.59,0,0,1,.21-.58A.69.69,0,0,0,92.4,31a.85.85,0,0,1,.61-.62l.39-.14.06,0a.79.79,0,0,1,.93.21,1.28,1.28,0,0,1,.32.66,2.09,2.09,0,0,1-.08,1.08,3.71,3.71,0,0,1-2.47,2.58,9.7,9.7,0,0,1-1.83.42,3.16,3.16,0,0,1-3.23-1.49,4,4,0,0,1-.53-1.19,9.22,9.22,0,0,1-.28-1.64,8.38,8.38,0,0,0-.37-1.91.19.19,0,0,1,0-.08,13.34,13.34,0,0,1-.37-2.43c0-.61-.09-1.22-.15-1.84,0-.14,0-.28,0-.42a.71.71,0,0,0,0-.26,3.26,3.26,0,0,1,0-1.83,3.82,3.82,0,0,1,1.42-2.38,4.17,4.17,0,0,1,2.2-.82,5.9,5.9,0,0,1,1.78.13,2.84,2.84,0,0,1,1.43.7,8.86,8.86,0,0,1,.88,1,2.4,2.4,0,0,1,.16.27l.11.16a1.23,1.23,0,0,1,.2.72,2.14,2.14,0,0,1-.19.72.46.46,0,0,1-.25.26.33.33,0,0,1-.1.06,4.79,4.79,0,0,1-.68.34l-.25.08a.73.73,0,0,1-1-.51l-.08-.18a2,2,0,0,0-.21-.45,2,2,0,0,0-1.11-.8.91.91,0,0,0-.69.06A.79.79,0,0,0,88.52,21.94Z"/><path class="cls-1" d="M95.26,17a.91.91,0,0,1-.8-.77,2.49,2.49,0,0,0-.09-.37c-.05-.22-.09-.44-.13-.65a.31.31,0,0,0,0-.1l0-.22a.81.81,0,0,1,.4-.84,1.75,1.75,0,0,1,.47-.2,3.33,3.33,0,0,1,1.26-.06.76.76,0,0,1,.69.61,4.08,4.08,0,0,0,.23.67.16.16,0,0,1,0,.06,2.49,2.49,0,0,1,.18.75.63.63,0,0,1-.26.64A2.67,2.67,0,0,1,95.26,17ZM97.52,33.8a.71.71,0,0,1-.71-.62,6.27,6.27,0,0,0-.22-.93c-.07-.25-.14-.5-.19-.76,0-.08,0-.17-.05-.26-.08-.39-.14-.79-.19-1.19-.14-1.21-.31-2.41-.51-3.62-.07-.43-.13-.85-.19-1.28a29.31,29.31,0,0,1-.26-3c0-.67-.09-1.35-.17-2A1,1,0,0,0,95,20a.91.91,0,0,0-.17-.49.4.4,0,0,1,0-.43.55.55,0,0,0,.05-.33.67.67,0,0,1,.39-.67,3,3,0,0,1,.68-.22,2.93,2.93,0,0,1,1.25,0,1,1,0,0,1,.74.78,8,8,0,0,1,.2,2.24,13,13,0,0,0,.37,2.91,17.58,17.58,0,0,1,.52,4,6.2,6.2,0,0,0,.2,1.48,11.8,11.8,0,0,1,.35,2.14,4.43,4.43,0,0,0,.06.51l0,.26a1.9,1.9,0,0,1-.07.85.83.83,0,0,1-.54.55,3.65,3.65,0,0,1-.76.17h-.24A3.18,3.18,0,0,1,97.52,33.8Z"/><path class="cls-1" d="M108.3,19c0,.14.08.28.11.41a.58.58,0,0,1,0,.14,0,0,0,0,0,0,0,.22.22,0,0,0,0,.08,1.41,1.41,0,0,1,0,.21c0,.24,0,.48,0,.72a.38.38,0,0,1-.1.2.65.65,0,0,1-.18.15,1.3,1.3,0,0,1-.43.2q-.35.12-.69.21a1.55,1.55,0,0,1-1.1-.1.73.73,0,0,1-.4-.47,3,3,0,0,0-.81-1.27.75.75,0,0,0-1-.1,2.4,2.4,0,0,0-.7.6,1.39,1.39,0,0,0-.21,1.16,1.5,1.5,0,0,0,.3.59,2.86,2.86,0,0,0,.54.56l.3.22a5.4,5.4,0,0,1,.74.62,1.26,1.26,0,0,0,.44.24,11,11,0,0,1,1.57.69,3.75,3.75,0,0,1,1.18,1.06l.51.76c.24.34.48.69.73,1a1.47,1.47,0,0,1,.3.78c0,.33.09.67.15,1,0,.11,0,.21,0,.31a1.46,1.46,0,0,1,0,.66c-.05.29-.1.57-.13.85a2.84,2.84,0,0,1-1.55,2.16,5.64,5.64,0,0,1-2,.65,3.61,3.61,0,0,1-1.52-.08,9.39,9.39,0,0,1-1.85-.63,2.67,2.67,0,0,1-1.45-1.43,3.28,3.28,0,0,1-.21-1.17.59.59,0,0,1,.3-.56,2.64,2.64,0,0,1,2.16-.3,1.06,1.06,0,0,1,.65.67,2.49,2.49,0,0,0,.69.85.65.65,0,0,0,.48.19,1.34,1.34,0,0,0,1-.42l0-.06.09-.1a1.33,1.33,0,0,0,.4-1.2,3.13,3.13,0,0,0-.27-.95A4.27,4.27,0,0,0,105,26.51a2.29,2.29,0,0,0-.72-.3,3.41,3.41,0,0,1-1.1-.45l-.44-.27c-.45-.25-.89-.53-1.32-.81a3.43,3.43,0,0,1-1.49-2.35,8,8,0,0,1-.09-2.07,2.59,2.59,0,0,1,.2-.83,9.65,9.65,0,0,1,.6-1.15,3.62,3.62,0,0,1,2.07-1.48,5.58,5.58,0,0,1,3.45.07A3.21,3.21,0,0,1,108.3,19Z"/><path class="cls-1" d="M118.11,17.49a2.51,2.51,0,0,1,.55,1.06,7.81,7.81,0,0,1,.25,2c0,.67,0,1.33.08,2a1.53,1.53,0,0,1-.49,1.23,2.71,2.71,0,0,1-1,.62.85.85,0,0,1-.45.06,3.2,3.2,0,0,0-.93.11,8.48,8.48,0,0,1-1.1.2.85.85,0,0,0-.63.37.69.69,0,0,0-.15.55,1.86,1.86,0,0,1,0,.33l0,.14a2.79,2.79,0,0,1,0,1.15,1.37,1.37,0,0,0,.29,1.05,5.28,5.28,0,0,0,.82.88.72.72,0,0,0,1,0,1.8,1.8,0,0,0,.69-1.15s0-.07,0-.12a2.88,2.88,0,0,1,.09-.4,1.11,1.11,0,0,1,1.28-.79,4.13,4.13,0,0,1,.63.14.54.54,0,0,1,.43.52,2.29,2.29,0,0,0,0,.37,2.56,2.56,0,0,1,0,.48,3.23,3.23,0,0,1-1.19,2.34,4.28,4.28,0,0,1-2,.9,4.79,4.79,0,0,1-4.12-1.17,4,4,0,0,1-.87-1.24.56.56,0,0,1,0-.08,1,1,0,0,1-.09-.41,1.94,1.94,0,0,1,0-.24c0-.43-.09-.87-.12-1.3,0-.62-.13-1.24-.24-1.85l-.06-.44c0-.4-.09-.79-.12-1.18,0-.14,0-.28,0-.41a15.88,15.88,0,0,0-.31-1.83c0-.18-.07-.36-.11-.54s-.07-.43-.11-.65,0-.25-.07-.38a1.19,1.19,0,0,1,0-.53,8.73,8.73,0,0,1,.63-1.73,3.86,3.86,0,0,1,1.7-1.62,6.54,6.54,0,0,1,1.27-.49,3.76,3.76,0,0,1,2.86.34,3.27,3.27,0,0,1,1.07,1Zm-2.27,2.25a1.55,1.55,0,0,0,0-.71,2.19,2.19,0,0,0-.17-.62,1.31,1.31,0,0,0-.48-.6,2.08,2.08,0,0,0-.72-.28.83.83,0,0,0-1,.73,4.28,4.28,0,0,0-.09.87,1.88,1.88,0,0,1-.07.53,1.86,1.86,0,0,0-.06.74,6.39,6.39,0,0,0,.54,1.48.59.59,0,0,0,.57.34q.33,0,.66.06a.77.77,0,0,0,.68-.3,1.4,1.4,0,0,0,.35-.87,1.42,1.42,0,0,0-.17-.74A.86.86,0,0,1,115.84,19.74Z"/><path class="cls-1" d="M59.37,40.75a.38.38,0,0,1,.15.24.91.91,0,0,1,0,.33,1.45,1.45,0,0,1-.08.36A.41.41,0,0,1,59,42h0a0,0,0,0,1,0,0,3.29,3.29,0,0,0-.77.06l-.14,0-.16,0-.34,0a1,1,0,0,0-.63.38.34.34,0,0,0-.07.24.59.59,0,0,0,0,.14A6.4,6.4,0,0,1,56.93,44a1.22,1.22,0,0,0,.25.71.33.33,0,0,0,.37.12,6.74,6.74,0,0,1,1.11-.15h.12a1.1,1.1,0,0,1,.25,0,.47.47,0,0,1,.44.34,2,2,0,0,1,.11.65.49.49,0,0,1-.43.49c-.31.05-.62.08-.94.1a1.54,1.54,0,0,0-.51.1.54.54,0,0,0-.34.45,2.25,2.25,0,0,0,.09,1.09,1.93,1.93,0,0,1,.12.71,3.47,3.47,0,0,0,.13,1l0,0a1.93,1.93,0,0,1,.06.36.5.5,0,0,1-.22.44,1.13,1.13,0,0,1-.67.21.45.45,0,0,1-.44-.29,1.59,1.59,0,0,1-.17-.55.69.69,0,0,0,0-.13v0a3.12,3.12,0,0,0-.13-.59l0-.07a1.54,1.54,0,0,1-.07-.64,3.14,3.14,0,0,0-.11-1l-.06-.3c-.08-.32-.14-.64-.21-1a7.48,7.48,0,0,1-.11-1.05l0-.43a4.66,4.66,0,0,0-.08-.64,7.15,7.15,0,0,1-.16-1.13,4.63,4.63,0,0,0-.07-.52c0-.06,0-.12,0-.18a2.18,2.18,0,0,1,0-.57.56.56,0,0,1,.38-.47,1.83,1.83,0,0,1,.25-.06l.25,0,.12,0a2.61,2.61,0,0,1,.48,0h.09a3.4,3.4,0,0,0,.46-.08l.06,0a1.74,1.74,0,0,1,.39,0,5.16,5.16,0,0,0,.79,0l.43,0A.72.72,0,0,1,59.37,40.75Z"/><path class="cls-1" d="M64.93,46.52s0,.1,0,.15L65,47c0,.18,0,.36.08.54s.09.62.14.93c0,.14,0,.28,0,.43v0a.33.33,0,0,1,0,.21.29.29,0,0,1-.17.12,1.37,1.37,0,0,1-.66.13h-.22a.54.54,0,0,1-.25-.06.27.27,0,0,0-.36,0,2.28,2.28,0,0,1-.44.3,1.11,1.11,0,0,1-.5.12,4.15,4.15,0,0,1-.79-.07,1.12,1.12,0,0,1-.73-.4A.57.57,0,0,1,61,49c-.12-.47-.23-1-.33-1.43a1.26,1.26,0,0,1,0-.61c0-.12,0-.25.07-.38l0-.18a1.72,1.72,0,0,1,.92-1.26,4.6,4.6,0,0,1,1-.4.91.91,0,0,0,.42-.3.3.3,0,0,0,0-.39l0,0a1.43,1.43,0,0,0-.14-.2.75.75,0,0,0-.48-.25.55.55,0,0,0-.49.15l-.06.07-.06.05a.43.43,0,0,0-.13.26.58.58,0,0,1-.43.52,1.47,1.47,0,0,1-.59.06.31.31,0,0,1-.3-.23.62.62,0,0,1,0-.33.49.49,0,0,0,0-.12s0,0,0,0a1.84,1.84,0,0,1,.82-1.51,2.29,2.29,0,0,1,1.59-.38,1.54,1.54,0,0,1,1,.47,3,3,0,0,1,.89,1.77c.06.57.14,1.14.22,1.71l0,.25a1,1,0,0,1,0,.17.64.64,0,0,1,0,.07h0Zm-1.33,0a2,2,0,0,0-.14-.57s0-.08,0-.12a.35.35,0,0,0-.2-.21.48.48,0,0,0-.29,0l-.14.07a1.74,1.74,0,0,0-.74.84.58.58,0,0,0,0,.41,1.14,1.14,0,0,1,.07.32,1.3,1.3,0,0,0,.32.77.66.66,0,0,0,.64.24.56.56,0,0,0,.54-.63v-.09a1.22,1.22,0,0,1,0-.38A1.6,1.6,0,0,0,63.6,46.51Z"/><path class="cls-1" d="M69.06,41.82a2.5,2.5,0,0,1,.53,1,.61.61,0,0,1,0,.46,1.22,1.22,0,0,0-.07.17l0,.08a.32.32,0,0,1-.32.23,2.91,2.91,0,0,1-.6-.06.49.49,0,0,1-.24-.16,1,1,0,0,1-.22-.48.25.25,0,0,1,0-.07.57.57,0,0,0,0-.14.39.39,0,0,0-.29-.3.7.7,0,0,0-.7.18.31.31,0,0,0-.09.18c0,.07,0,.14,0,.21a2.6,2.6,0,0,0,0,.39,0,0,0,0,0,0,0,.41.41,0,0,0,0,.11,1.14,1.14,0,0,1,.07.41v0a3.87,3.87,0,0,0,.13.77v0c.11.47.2,1,.27,1.43s.15,1,.24,1.56l.06.38a.76.76,0,0,1-.13.57.38.38,0,0,1-.2.15,1.73,1.73,0,0,1-.6.11.71.71,0,0,1-.32-.07.25.25,0,0,1-.17-.21,4.36,4.36,0,0,0-.11-.52,4.45,4.45,0,0,1-.12-.73.45.45,0,0,0,0-.11c0-.09,0-.18,0-.28a.13.13,0,0,0,0-.06.5.5,0,0,0,0-.16,2.9,2.9,0,0,1-.09-.83c0-.14,0-.28,0-.42v0a.29.29,0,0,0-.07-.2.49.49,0,0,1-.08-.29l0-.26q-.06-.78-.15-1.56c0-.24-.06-.48-.1-.72v-.06a.42.42,0,0,0,0-.16,1,1,0,0,1-.06-.23.54.54,0,0,1,.42-.61,1.56,1.56,0,0,1,.83,0,.67.67,0,0,0,.52-.06,2.06,2.06,0,0,1,.91-.21A1.41,1.41,0,0,1,69.06,41.82Z"/><path class="cls-1" d="M77.05,43.43a10,10,0,0,1,.1,1.44,4.71,4.71,0,0,0,.21,1.3c0,.15.08.29.11.43h0a1.41,1.41,0,0,1,0,.46.65.65,0,0,0,0,.14v0a.22.22,0,0,1-.12.25,1.52,1.52,0,0,1-.77.24.77.77,0,0,1-.41-.11.34.34,0,0,1-.12-.12.2.2,0,0,1,0-.17s0-.05,0-.07a1.79,1.79,0,0,1,0-.23,1.1,1.1,0,0,0,0-.31c-.13-.54-.24-1.08-.34-1.63-.06-.36-.1-.72-.13-1.07,0,0,0-.09,0-.13,0-.51-.11-1-.18-1.52a2.88,2.88,0,0,0-.09-.4.78.78,0,0,0-.27-.41.38.38,0,0,0-.34-.07.71.71,0,0,0-.39.27,1,1,0,0,0-.18.39.41.41,0,0,0,0,.16,1.67,1.67,0,0,1,.11.53,9.6,9.6,0,0,0,.18,1.31.88.88,0,0,1,0,.17,18.45,18.45,0,0,1,.3,2.09c0,.23,0,.45.07.68a1.78,1.78,0,0,1,0,.61.46.46,0,0,1-.36.38,1.19,1.19,0,0,1-.53,0,.44.44,0,0,1-.44-.4v0a.17.17,0,0,0,0-.07,1.37,1.37,0,0,1-.13-.59V47l-.12-1.46c0-.31-.1-.62-.17-.93L73,44.31c-.08-.39-.16-.78-.22-1.18a1.67,1.67,0,0,1,0-.32,1,1,0,0,0-.31-.8.42.42,0,0,0-.57,0l-.06,0a2,2,0,0,0-.36.5.37.37,0,0,0,0,.38.73.73,0,0,1,.14.38c0,.35.09.71.13,1s.09.81.14,1.21c0,.18,0,.36.07.54l.09.73a2.06,2.06,0,0,1,0,.26,3.11,3.11,0,0,0,0,.32,1.28,1.28,0,0,0,.07.28.78.78,0,0,1,.07.25.33.33,0,0,1-.17.33l-.17.08a2.54,2.54,0,0,0-.38.16.48.48,0,0,1-.63-.1.64.64,0,0,1-.19-.57.92.92,0,0,0,0-.33v0l0-.2a11.83,11.83,0,0,1-.19-1.33,4.72,4.72,0,0,0-.1-.64L70.32,45a.21.21,0,0,0,0-.11.38.38,0,0,1-.09-.25c0-.19,0-.38,0-.56A6.64,6.64,0,0,0,70,42.62v0h0a2.33,2.33,0,0,0,0-.28c0-.21-.07-.42-.12-.64a.49.49,0,0,1,.35-.6,1.71,1.71,0,0,1,.92-.1.84.84,0,0,0,.58-.08,1.07,1.07,0,0,1,.36-.1h.18a3.15,3.15,0,0,1,.53,0,1.09,1.09,0,0,1,.44.06.39.39,0,0,1,.21.17.26.26,0,0,0,.11.12.22.22,0,0,0,.16,0,.46.46,0,0,0,.33-.24.71.71,0,0,1,.28-.33,1.29,1.29,0,0,1,.4-.16,1.38,1.38,0,0,1,.78,0,2,2,0,0,1,.45.24,4.28,4.28,0,0,1,.45.4,1.1,1.1,0,0,1,.26.44c.07.23.13.47.18.71a.5.5,0,0,0,0,.12Q76.95,42.85,77.05,43.43Z"/><path class="cls-1" d="M82.62,38.85a.68.68,0,0,0-.46.35,1,1,0,0,0-.1.51,1.18,1.18,0,0,0,.09.37,3.77,3.77,0,0,1,.17,1.1,4.32,4.32,0,0,0,.11.88,3.05,3.05,0,0,1,.08.74,2.53,2.53,0,0,0,.1.67,1.49,1.49,0,0,1,.07.47,3.47,3.47,0,0,0,.08.55.75.75,0,0,0,.33.5,1.74,1.74,0,0,0,.33.18.72.72,0,0,0,.48,0,.78.78,0,0,0,.41-.26,1.34,1.34,0,0,0,.18-.28,1.87,1.87,0,0,1,.15-.32A.63.63,0,0,1,85,44.1l.4-.11a.47.47,0,0,1,.43.07.39.39,0,0,1,.17.25,2.37,2.37,0,0,1,0,1.06.7.7,0,0,1-.11.23,2.45,2.45,0,0,1-.88.78l-.25.15-.17.09a1.27,1.27,0,0,1-.66.14L83,46.69a1.54,1.54,0,0,1-1.19-.78l0,0a3.5,3.5,0,0,1-.45-1v0c0-.2-.1-.4-.16-.6a1.24,1.24,0,0,1-.09-.38h0v-.06A3.58,3.58,0,0,0,81,42.73a2.49,2.49,0,0,1-.08-.61,2.2,2.2,0,0,0-.05-.57,1.91,1.91,0,0,1,0-.54,4.25,4.25,0,0,0-.06-.8.78.78,0,0,1,0-.14,2.73,2.73,0,0,0-.1-.48,1,1,0,0,1,.07-.74,2.39,2.39,0,0,0,.11-.32,1.56,1.56,0,0,1,.8-.94A3.52,3.52,0,0,1,83,37.17a1.41,1.41,0,0,1,.88.18l.38.2.16.08a1.33,1.33,0,0,1,.45.36h0l0,0a4.53,4.53,0,0,1,.43.92.37.37,0,0,1-.2.44,1.22,1.22,0,0,1-.79.12.67.67,0,0,1-.41-.24l-.09-.12-.07-.09a.78.78,0,0,0-.9-.27l-.09,0Z"/><path class="cls-1" d="M91.1,42.73a1.23,1.23,0,0,1,0,.19c0,.15,0,.3.07.46a.82.82,0,0,1,0,.35,3.21,3.21,0,0,0-.05.69,1.43,1.43,0,0,1-.33.93,1.81,1.81,0,0,1-.77.57,3.91,3.91,0,0,1-1.21.26,1.92,1.92,0,0,1-1-.28,1.85,1.85,0,0,1-.7-.81s0,0,0,0l0-.05a.58.58,0,0,1,0-.48.21.21,0,0,0,0-.25.27.27,0,0,1-.06-.1.49.49,0,0,1,0-.12c0-.21,0-.41,0-.62s0-.48,0-.72a1.16,1.16,0,0,0,0-.18,5,5,0,0,1-.13-.94.81.81,0,0,1,0-.16,4.58,4.58,0,0,0-.08-.62s0-.06,0-.09a2.85,2.85,0,0,1,.31-1.43,1.5,1.5,0,0,1,1-.78,2.28,2.28,0,0,1,.57-.1,4.07,4.07,0,0,1,.5,0h.08a1.77,1.77,0,0,1,1.08.47l0,0,.19.16a1.06,1.06,0,0,1,.24.41,1.87,1.87,0,0,1,.11.48,4.27,4.27,0,0,0,.12.7l.06.27a.59.59,0,0,1,0,.13c.08.39.16.77.23,1.16a1,1,0,0,0,0,.17C91.07,42.54,91.08,42.63,91.1,42.73Zm-1.44,1.93a1.28,1.28,0,0,0,.09-.94,12.88,12.88,0,0,1-.26-1.65.2.2,0,0,0,0-.07,1,1,0,0,0,0-.25c0-.2-.09-.4-.13-.6a1.18,1.18,0,0,1,0-.2,1.08,1.08,0,0,1,0-.4,1.14,1.14,0,0,0-.06-.48.34.34,0,0,0-.16-.21l-.1-.07-.18-.11a.5.5,0,0,0-.41,0,.53.53,0,0,0-.29.3,1,1,0,0,0-.08.52c0,.15,0,.3,0,.45v.25c0,.26,0,.51.05.76,0,.07,0,.14,0,.2a2.64,2.64,0,0,1,0,.28,6.47,6.47,0,0,0,.11.87l0,.19c0,.16.05.31.07.46a.79.79,0,0,0,.13.35l.13.2c.08.11.15.23.22.34A.29.29,0,0,0,89,45a.65.65,0,0,0,.39,0A.55.55,0,0,0,89.66,44.66Z"/><path class="cls-1" d="M92.07,36a.5.5,0,0,1,.47.32.56.56,0,0,1,.06.4.67.67,0,0,0,0,.2v0q.06.5.15,1c0,.09,0,.17,0,.26,0,.32.08.64.1,1,0,.16,0,.31,0,.45a13.66,13.66,0,0,0,.2,1.43l0,.2c0,.08,0,.17,0,.25l.09.63c.08.73.2,1.45.35,2.17a1.29,1.29,0,0,1,0,.48,4.4,4.4,0,0,1-.1.47.33.33,0,0,1-.24.22l-.17,0a2.64,2.64,0,0,1-.49,0,.35.35,0,0,1-.34-.31c-.1-.5-.19-1-.26-1.47,0,0,0-.08,0-.11,0-.32-.1-.63-.14-.93l-.06-.43h0v-.09a5.47,5.47,0,0,0-.12-1,1.76,1.76,0,0,1-.06-.46,7.19,7.19,0,0,0-.11-1c0-.34-.1-.67-.17-1-.09-.51-.18-1-.24-1.53a1.09,1.09,0,0,0-.07-.3.84.84,0,0,1,0-.39.26.26,0,0,1,.09-.17.5.5,0,0,1,.14-.1A1.7,1.7,0,0,1,92.07,36Z"/><path class="cls-1" d="M94.32,35.63a.53.53,0,0,1,.48.33.61.61,0,0,1,0,.4.41.41,0,0,0,0,.19v.05c0,.33.09.65.15,1,0,.09,0,.18,0,.27,0,.32.08.64.1,1,0,.15,0,.3,0,.45a13.12,13.12,0,0,0,.2,1.42l0,.2a2.34,2.34,0,0,1,0,.26l.09.63c.08.72.2,1.45.35,2.16a1.29,1.29,0,0,1,0,.48,3.56,3.56,0,0,1-.1.47.35.35,0,0,1-.24.23l-.17,0a2.66,2.66,0,0,1-.49,0,.35.35,0,0,1-.34-.32c-.1-.5-.19-1-.26-1.47,0,0,0-.07,0-.11-.06-.31-.11-.62-.15-.92l-.06-.43h0v-.09a5.36,5.36,0,0,0-.12-1,2.42,2.42,0,0,1-.06-.46,7.33,7.33,0,0,0-.11-1.05c0-.33-.1-.66-.16-1-.1-.51-.18-1-.25-1.54a1,1,0,0,0-.07-.29.9.9,0,0,1,0-.4.32.32,0,0,1,.09-.17.42.42,0,0,1,.14-.09A1.84,1.84,0,0,1,94.32,35.63Z"/><path class="cls-1" d="M99.78,38.14a1.24,1.24,0,0,1,.25.5,3,3,0,0,1,.12.93c0,.32,0,.63,0,.94a.74.74,0,0,1-.23.58,1.32,1.32,0,0,1-.46.29.39.39,0,0,1-.21,0,1.3,1.3,0,0,0-.44.05,4.34,4.34,0,0,1-.52.09.43.43,0,0,0-.29.18A.29.29,0,0,0,98,42a1,1,0,0,1,0,.16s0,0,0,.07a1.35,1.35,0,0,1,0,.53.64.64,0,0,0,.14.5,2.46,2.46,0,0,0,.38.41.34.34,0,0,0,.48,0,.84.84,0,0,0,.32-.54.07.07,0,0,0,0,0,1.05,1.05,0,0,1,0-.19.52.52,0,0,1,.6-.37,1.37,1.37,0,0,1,.29.07.24.24,0,0,1,.2.24V43a.89.89,0,0,1,0,.23,1.54,1.54,0,0,1-.56,1.1,1.94,1.94,0,0,1-1,.41A2.2,2.2,0,0,1,97,44.18a1.66,1.66,0,0,1-.41-.57l0,0a.46.46,0,0,1,0-.2s0-.07,0-.11c0-.2,0-.4,0-.61s-.07-.58-.11-.87l0-.2A5.43,5.43,0,0,1,96.3,41c0-.07,0-.13,0-.2a8.41,8.41,0,0,0-.15-.85c0-.09,0-.17,0-.26s0-.2,0-.3a.57.57,0,0,1,0-.18A.53.53,0,0,1,96,39a3.41,3.41,0,0,1,.29-.81,1.78,1.78,0,0,1,.8-.76,4.24,4.24,0,0,1,.59-.23,1.74,1.74,0,0,1,1.34.17,1.4,1.4,0,0,1,.51.46A3.92,3.92,0,0,0,99.78,38.14ZM98.71,39.2a.74.74,0,0,0,0-.33,1,1,0,0,0-.08-.29.54.54,0,0,0-.23-.28.89.89,0,0,0-.33-.14.39.39,0,0,0-.47.35,1.84,1.84,0,0,0,0,.41,2,2,0,0,1,0,.24.83.83,0,0,0,0,.35,2.49,2.49,0,0,0,.25.69.26.26,0,0,0,.26.16l.31,0a.36.36,0,0,0,.32-.14.63.63,0,0,0,.17-.41.85.85,0,0,0-.08-.35A.42.42,0,0,1,98.71,39.2Z"/><path class="cls-1" d="M102.25,38a2,2,0,0,1,0,.24,3,3,0,0,0-.09.73,1.65,1.65,0,0,0,0,.3v.05l0,.16c0,.12.07.25.1.38a5.9,5.9,0,0,1,.2,1.39c0,.26,0,.52.05.79a1.55,1.55,0,0,0,.21.67.78.78,0,0,0,.74.37.41.41,0,0,0,.34-.2.3.3,0,0,0,.06-.2.28.28,0,0,1,.1-.27.34.34,0,0,0,.08-.17.42.42,0,0,1,.29-.29l.18-.06h0a.36.36,0,0,1,.44.1.75.75,0,0,1,.15.31,1.06,1.06,0,0,1,0,.5A1.74,1.74,0,0,1,104,44a5.11,5.11,0,0,1-.86.2,1.46,1.46,0,0,1-1.51-.7,1.66,1.66,0,0,1-.25-.56,4,4,0,0,1-.13-.76,3.87,3.87,0,0,0-.17-.9s0,0,0,0a7.12,7.12,0,0,1-.17-1.14c0-.28,0-.57-.07-.86,0-.07,0-.13,0-.2a.5.5,0,0,0,0-.12,1.48,1.48,0,0,1,0-.86,1.76,1.76,0,0,1,.67-1.11,1.89,1.89,0,0,1,1-.39,2.88,2.88,0,0,1,.83.06,1.37,1.37,0,0,1,.67.33,3.47,3.47,0,0,1,.41.45.57.57,0,0,1,.08.13l0,.07a.56.56,0,0,1,.09.34.84.84,0,0,1-.08.34.28.28,0,0,1-.12.12l0,0-.32.16-.12,0a.34.34,0,0,1-.45-.24l0-.08a2,2,0,0,0-.1-.21.89.89,0,0,0-.52-.37.35.35,0,0,0-.32,0A.37.37,0,0,0,102.25,38Z"/><path class="cls-1" d="M108,36.25a.91.91,0,0,1-.06.82.35.35,0,0,1-.13.14l-.09.06-.2.13a.51.51,0,0,0-.22.33,1.37,1.37,0,0,0,0,.49,2.77,2.77,0,0,0,.11.48c0,.09.05.19.08.29s.1.34.15.52a5,5,0,0,1,.1,1.09c0,.15,0,.31,0,.47a1.87,1.87,0,0,0,.1.62.6.6,0,0,1,0,.12.62.62,0,0,0,.16.39l.15.18,0,0a2.22,2.22,0,0,1,.19.27.75.75,0,0,1,.09.29.52.52,0,0,1-.49.59h0a1.78,1.78,0,0,1-1-.31.76.76,0,0,1-.29-.37,3.73,3.73,0,0,1-.21-.67q0-.3-.09-.57-.11-.62-.15-1c-.07-.47-.12-.9-.16-1.27s-.08-.71-.13-1v-.12a.64.64,0,0,0,0-.24.54.54,0,0,0-.38-.37,1.43,1.43,0,0,1-.3-.16.64.64,0,0,1-.28-.62c0-.09,0-.17,0-.25a.52.52,0,0,1,.24-.45.71.71,0,0,0,.32-.47.36.36,0,0,1,.22-.26l.64-.25a.47.47,0,0,1,.21,0,.39.39,0,0,1,.32.18l.15.19.17.22a.28.28,0,0,0,.22.14l.2,0,0,0A.57.57,0,0,1,108,36.25Z"/><path class="cls-1" d="M108.81,35.14a.43.43,0,0,1-.37-.37,1.36,1.36,0,0,0,0-.17,1.59,1.59,0,0,1-.06-.3v-.15a.38.38,0,0,1,.19-.4.85.85,0,0,1,.22-.09,1.89,1.89,0,0,1,.58,0,.35.35,0,0,1,.33.29,1.63,1.63,0,0,0,.11.31s0,0,0,0a1.06,1.06,0,0,1,.09.35.28.28,0,0,1-.13.3A1.27,1.27,0,0,1,108.81,35.14ZM109.87,43a.34.34,0,0,1-.33-.29,3.48,3.48,0,0,0-.1-.44,2,2,0,0,1-.09-.35s0-.08,0-.12a5.43,5.43,0,0,1-.09-.56c-.07-.57-.15-1.13-.24-1.7l-.09-.6q-.09-.69-.12-1.38c0-.32-.05-.64-.08-1a.22.22,0,0,0,0-.08.4.4,0,0,0-.08-.23.18.18,0,0,1,0-.2.29.29,0,0,0,0-.16.33.33,0,0,1,.18-.31,1.19,1.19,0,0,1,.32-.1,1.47,1.47,0,0,1,.59,0,.47.47,0,0,1,.35.37,3.7,3.7,0,0,1,.09,1,6.18,6.18,0,0,0,.17,1.36,8,8,0,0,1,.25,1.89,2.72,2.72,0,0,0,.09.69,4.94,4.94,0,0,1,.16,1l0,.23s0,.08,0,.13a.86.86,0,0,1,0,.39.4.4,0,0,1-.26.26,1.31,1.31,0,0,1-.36.08h-.36Z"/><path class="cls-1" d="M115.6,39.3a1.37,1.37,0,0,1,0,.19c0,.16,0,.31.07.46a1.09,1.09,0,0,1,0,.36,2.69,2.69,0,0,0-.06.69,1.39,1.39,0,0,1-.33.92,1.7,1.7,0,0,1-.77.58,3.63,3.63,0,0,1-1.21.25,1.76,1.76,0,0,1-1-.28,1.82,1.82,0,0,1-.7-.8s0,0,0,0l0-.06a.56.56,0,0,1,0-.47.21.21,0,0,0,0-.25.18.18,0,0,1,0-.11.37.37,0,0,1,0-.12c0-.2,0-.4,0-.61s0-.48-.06-.73l0-.17a4.27,4.27,0,0,1-.14-.94s0-.11,0-.16a3.19,3.19,0,0,0-.08-.62s0-.06,0-.09a2.88,2.88,0,0,1,.31-1.44,1.56,1.56,0,0,1,1-.78,2.26,2.26,0,0,1,.57-.09,4.07,4.07,0,0,1,.5,0h.08a1.84,1.84,0,0,1,1.08.48l0,0,.19.16a1,1,0,0,1,.24.4,2.08,2.08,0,0,1,.11.48,5.38,5.38,0,0,0,.12.7l.06.27a.68.68,0,0,1,0,.14c.08.39.16.77.23,1.16,0,0,0,.11,0,.17A2.74,2.74,0,0,1,115.6,39.3Zm-1.44,1.94a1.28,1.28,0,0,0,.09-.94,13.46,13.46,0,0,1-.26-1.65v-.07a1.87,1.87,0,0,0,0-.25c0-.2-.09-.4-.13-.6s0-.13,0-.2a1.13,1.13,0,0,1,0-.41.94.94,0,0,0-.06-.47.38.38,0,0,0-.16-.22.47.47,0,0,1-.09-.06l-.19-.11a.5.5,0,0,0-.41,0,.55.55,0,0,0-.29.29,1.08,1.08,0,0,0-.08.53c0,.15,0,.3,0,.44v.26c0,.25,0,.51.05.76a1.36,1.36,0,0,1,0,.2,2.46,2.46,0,0,1,0,.28,6.47,6.47,0,0,0,.11.87l0,.19c0,.15.05.31.07.46a.79.79,0,0,0,.13.35l.13.2a4,4,0,0,1,.22.34.28.28,0,0,0,.2.15.7.7,0,0,0,.38,0A.55.55,0,0,0,114.16,41.24Z"/><path class="cls-1" d="M120.58,39.64a1.33,1.33,0,0,0,0,.19,4,4,0,0,1,.21,1.07,1.21,1.21,0,0,1-.14.55s0,0,0,0a.29.29,0,0,1-.12.1,1.76,1.76,0,0,1-.55.17.43.43,0,0,1-.51-.35s0-.09,0-.14a3.71,3.71,0,0,0-.12-.93l-.06-.29v0a17,17,0,0,1-.26-1.74c0-.25-.05-.51-.07-.76s-.06-.52-.08-.78a1.53,1.53,0,0,0-.11-.47c-.06-.14-.13-.29-.2-.43s0,0,0,0a.61.61,0,0,0-.55-.35.46.46,0,0,0-.49.36,1.19,1.19,0,0,0,0,.56.14.14,0,0,1,0,.09,1.91,1.91,0,0,0,0,.63s0,.07,0,.11a7.32,7.32,0,0,0,.15.79l0,.12a10.41,10.41,0,0,1,.2,1.09c0,.18,0,.35.08.52.09.46.18.92.25,1.39h0a.57.57,0,0,1,0,.13s0,0,0,.08l-.07.35a.4.4,0,0,1-.28.31,1.56,1.56,0,0,1-.71.08.5.5,0,0,1-.34-.2,1,1,0,0,1-.2-.68c0-.18,0-.37,0-.56s0-.18,0-.28a4.94,4.94,0,0,0-.12-.94l-.06-.26a4.61,4.61,0,0,0-.14-.62,5.49,5.49,0,0,1-.13-1.07.61.61,0,0,1,0-.14,12.18,12.18,0,0,0-.23-1.7c0-.1,0-.2,0-.3s0-.15,0-.22a.39.39,0,0,1,.06-.28.53.53,0,0,1,.22-.2,1.56,1.56,0,0,1,1-.08.72.72,0,0,0,.5,0,2.29,2.29,0,0,1,.82-.15,1.49,1.49,0,0,1,1.2.55.89.89,0,0,1,.19.33,2.1,2.1,0,0,0,.15.3v0a1,1,0,0,1,.15.49,11.88,11.88,0,0,0,.16,1.32l.06.36,0,.27a.34.34,0,0,0,0,.1C120.45,38.61,120.5,39.12,120.58,39.64Z"/></g></g></svg>