<svg xmlns="http://www.w3.org/2000/svg" viewBox="0 0 426 241.03"><defs><style>.cls-1,.cls-5{fill:#348f41;}.cls-1{opacity:0.1;}.cls-2{fill:#e30613;}.cls-3{fill:#161617;}.cls-4{fill:#fff;}.cls-6{fill:#f8f7f7;}</style></defs><title>transactions</title><g id="Layer_2" data-name="Layer 2"><g id="Layer_1-2" data-name="Layer 1"><rect class="cls-1" width="426" height="240"/><path class="cls-2" d="M45.77,241l-.08-97.4h58.8v97l-24.38.28,0-66s-5.1,1.54-7.73-.77l.09,66.47Z"/><path class="cls-3" d="M104.65,144.26h-59a.79.79,0,0,1-.79-.79V108.12a.8.8,0,0,1,1.59,0v34.56h57.38V108.12a.79.79,0,0,1,1.58,0v35.35A.79.79,0,0,1,104.65,144.26Z"/><path class="cls-3" d="M31.58,132.06h0a.8.8,0,0,1-.76-.83,102.33,102.33,0,0,1,3.2-19.6c3.7-13.6,9.89-22.54,17.9-25.85l.18,0,12-1.9a.74.74,0,0,1,.56.12l13.55,9.22,5-9a.8.8,0,0,1,1-.32c.18.09,18.61,9.32,30,19.63s14.52,13.93,14.65,14.08a.8.8,0,0,1-.05,1.09l-13.64,13.14a.78.78,0,0,1-1,.08l-10-6.73a.79.79,0,0,1,.88-1.32l9.46,6.38,12.61-12.16c-1.28-1.36-5.18-5.38-14-13.39-10-9-25.53-17.28-28.94-19l-5,9a.81.81,0,0,1-1.14.27L64,85.44,52.4,87.28c-18.26,7.67-20,43.66-20,44A.79.79,0,0,1,31.58,132.06Z"/><path class="cls-3" d="M45.68,147.91H45.6l-17.27-1.71a.81.81,0,0,1-.54-.29.79.79,0,0,1-.17-.59l1.58-14.13a.85.85,0,0,1,.31-.55.82.82,0,0,1,.61-.15L45.81,133a.79.79,0,1,1-.25,1.57l-14.87-2.39-1.41,12.51,16.48,1.64a.78.78,0,0,1,.71.86A.79.79,0,0,1,45.68,147.91Z"/><path class="cls-3" d="M71.52,104.9h-.06a.8.8,0,0,1-.65-.43L61.62,86a.79.79,0,1,1,1.42-.7l8.6,17.3,6.21-8.73a.76.76,0,0,1,.53-.32.74.74,0,0,1,.61.16l6.16,4.87v-13a.8.8,0,0,1,1.59,0V100.2a.8.8,0,0,1-1.29.62l-6.79-5.37-6.49,9.12A.79.79,0,0,1,71.52,104.9Z"/><path class="cls-3" d="M79.29,142.68a.78.78,0,0,1-.8-.75L77.7,94.32a.76.76,0,0,1,.78-.78h0a.79.79,0,0,1,.8.77l.79,47.6a.75.75,0,0,1-.78.77Z"/><path class="cls-3" d="M82.73,82.14c-9.91,0-14.74-5-15-5.28a.79.79,0,0,1,1.16-1.08c0,.06,5.62,5.82,16.93,4.61,11-1.17,9.61-21.79,9.6-22A.79.79,0,0,1,97,58.27a47.33,47.33,0,0,1-.71,11.16c-1.5,7.64-5.06,12-10.3,12.53A29.53,29.53,0,0,1,82.73,82.14Z"/><path class="cls-3" d="M64.44,83.46a.78.78,0,0,1-.78-.66l-2-12.4c-1.28-.59-5.13-2.54-6.14-5.49a4.65,4.65,0,0,1,.47-4A3.45,3.45,0,0,1,58.83,59c1.52-.08,3.3.89,5.29,2.85.43.43.83.87,1.17,1.26L66,54.69a.79.79,0,0,1,1.58.13l-.85,10.36a.8.8,0,0,1-1.44.4c-1-1.42-4.08-5-6.28-5H58.9a2,2,0,0,0-1.59,1.17A3.05,3.05,0,0,0,57,64.39c.8,2.34,4.35,4.19,5.65,4.71a.82.82,0,0,1,.49.61l2.11,12.83a.79.79,0,0,1-.65.91Z"/><path class="cls-3" d="M66.77,54.12l-.85,11s-6.34-8.87-9.3-3.8,5.71,8.53,5.71,8.53l.75,4.59s-7.45-5.82-10.9-9.37c-5.44-5.6-8.45-20.64.85-25Z"/><path class="cls-3" d="M54.19,39,68.35,53.07S88.74,59.41,98,54.76l.85,6.34s8.45-7.4,3.8-20.29-26.2-18.6-35.92-12.47S54.19,39,54.19,39Z"/><path class="cls-3" d="M87.27,72H84.83a.79.79,0,0,1,0-1.58h1.44l-1-4.53a.79.79,0,1,1,1.54-.35L88,71a.8.8,0,0,1-.15.67A.79.79,0,0,1,87.27,72Z"/><path class="cls-3" d="M82.94,76.53a8.06,8.06,0,0,1-4.53-1.47A.8.8,0,0,1,78.26,74a.79.79,0,0,1,1.11-.15h0a6.29,6.29,0,0,0,5.23.89.79.79,0,0,1,.47,1.51A7.18,7.18,0,0,1,82.94,76.53Z"/><path class="cls-3" d="M73.32,66.49a.8.8,0,0,1-.6-1.31c.12-.14,3-3.44,6.29-3a.79.79,0,1,1-.23,1.56c-2-.29-4.19,1.66-4.86,2.43A.81.81,0,0,1,73.32,66.49Z"/><path class="cls-3" d="M80.1,65.7a1.18,1.18,0,1,1-2.35,0,1.18,1.18,0,1,1,2.35,0Z"/><path class="cls-3" d="M86.63,65.85a.79.79,0,0,1-.6-1.31c.12-.14,3-3.44,6.29-3a.79.79,0,1,1-.23,1.57c-2-.3-4.19,1.65-4.86,2.43A.8.8,0,0,1,86.63,65.85Z"/><path class="cls-3" d="M93.42,65.06a1.18,1.18,0,1,1-1.18-1.27A1.23,1.23,0,0,1,93.42,65.06Z"/><path class="cls-3" d="M50,39.65H46.79a.8.8,0,0,1,0-1.59H50a.8.8,0,1,1,0,1.59Z"/><path class="cls-3" d="M51.34,37.38a.82.82,0,0,1-.65-.33l-1.37-1.91A.78.78,0,0,1,49.5,34a.79.79,0,0,1,1.11.18L52,36.12a.79.79,0,0,1-.64,1.26Z"/><path class="cls-3" d="M82.93,86a.8.8,0,0,1-.79-.76L82,81.38a.79.79,0,0,1,.75-.82.8.8,0,0,1,.83.76l.16,3.89A.78.78,0,0,1,83,86Z"/><path class="cls-3" d="M75.69,175.47a17.35,17.35,0,0,1-9.49-2.61.8.8,0,0,1,.92-1.3h0c.07.05,7.22,4.93,17.37.28a.79.79,0,0,1,1.05.39.78.78,0,0,1-.39,1.05A22.55,22.55,0,0,1,75.69,175.47Z"/><path class="cls-3" d="M45.68,204.34h-.06c-4.54-.37-6.91-6.92-6.91-10.33a99.14,99.14,0,0,0-1.26-10.6l-5.39-34.08a.79.79,0,0,1,1.57-.25L39,183.15A98.85,98.85,0,0,1,40.29,194c0,2.93,2.07,8.48,5.46,8.75a.78.78,0,0,1,.72.85A.79.79,0,0,1,45.68,204.34Z"/><path class="cls-3" d="M45.35,196.75a1.93,1.93,0,0,1-1.17-.4c-2.55-1.89-2.89-11-2.93-12.76a.79.79,0,1,1,1.58,0c.1,4.16.88,10.48,2.29,11.53a.37.37,0,0,0,.35.07.8.8,0,0,1,1,.55.81.81,0,0,1-.55,1A2.13,2.13,0,0,1,45.35,196.75Z"/><path class="cls-3" d="M75.4,166.62C64,166.62,60,154.93,60,154.81a.79.79,0,0,1,.11-.71.81.81,0,0,1,.64-.33H90.86a.81.81,0,0,1,.64.33.81.81,0,0,1,.11.72c0,.11-4,11.46-15.74,11.79ZM61.9,155.36c1.21,2.75,5.2,9.91,13.93,9.67s12.63-7,13.85-9.67Z"/><path class="cls-3" d="M94,150.83a5.6,5.6,0,0,1-4.47-1.8c-1.73-2-1.45-4.95-1.39-5.45l-.55-56.16a.84.84,0,0,1,.79-.85h0a.83.83,0,0,1,.79.83l.55,56.2s0,.09,0,.13-.37,2.67,1,4.26A4.1,4.1,0,0,0,94,149.24a2.47,2.47,0,0,0,1.88-.77c1.56-1.63,1.44-5.16,1.44-5.2l-1-50.93a.79.79,0,0,1,.77-.81.81.81,0,0,1,.81.78l1,50.91c0,.16.16,4.23-1.87,6.35A4.09,4.09,0,0,1,94,150.83Z"/><path class="cls-3" d="M94.37,146.85a1.18,1.18,0,1,1-1.17-1.27A1.23,1.23,0,0,1,94.37,146.85Z"/><path class="cls-4" d="M84.83,110.58v39.63s.64,6.42,6.28,6.42h26.16a6.22,6.22,0,0,0,5.61-6.57V110.58S108.29,119.42,84.83,110.58Z"/><path class="cls-3" d="M117.27,157.26H91.11c-5,0-6.72-4.57-6.91-7V110.58a.79.79,0,0,1,1.07-.74,56.91,56.91,0,0,0,20,3.88c10.93,0,17.28-3.78,17.34-3.82a.8.8,0,0,1,1.21.68v39.48c0,6.81-6.46,7.2-6.52,7.2Zm-31.48-7.09c0,.46.61,5.51,5.32,5.51h26.14a5.3,5.3,0,0,0,5-5.62V111.89a39.93,39.93,0,0,1-17,3.41,57.8,57.8,0,0,1-19.49-3.58Z"/><path class="cls-4" d="M127.07,119.28l7.85,8.34s8.56,10.78-1.74,17.44c0,0-23,1.9-31.07,2.05a138.51,138.51,0,0,1-18.23-1.26A8.07,8.07,0,0,1,81,144.42a5.83,5.83,0,0,1-1.76-3.33L78.49,140a10.18,10.18,0,0,1-.95-3.8s-1.74-1.74-1.8-2.66,6.24.12,8.9,0,5-3.21,5-3.21a10.26,10.26,0,0,1-4.6,0c-1.74-.63,3.49-4.12,5.87-5.07S102,130.31,102,130.31l25-.79"/><path class="cls-3" d="M100.86,147.92a144.57,144.57,0,0,1-17.09-1.29h-.06a8.79,8.79,0,0,1-3.17-1.57,6.53,6.53,0,0,1-2-3.64l-.67-1a9.42,9.42,0,0,1-1.07-3.91c-.6-.62-1.77-2-1.83-3a1,1,0,0,1,.3-.76c.59-.58,1.89-.54,5.46-.26,1.45.11,3,.22,3.9.18a5.17,5.17,0,0,0,2.87-1.35,7.72,7.72,0,0,1-2.76-.32,1.24,1.24,0,0,1-.87-1.14c0-2,5.57-5,6.71-5.41.79-.32,2.39-.43,7.13,2.22,2,1.15,3.88,2.37,4.5,2.78l24.78-.78a.78.78,0,0,1,.82.77.79.79,0,0,1-.77.81l-25,.8a.9.9,0,0,1-.48-.14c-4-2.78-9.12-5.49-10.35-5a18.56,18.56,0,0,0-5.55,3.69,10.3,10.3,0,0,0,3.82-.13.8.8,0,0,1,.83.34.82.82,0,0,1,0,.91c-.1.13-2.54,3.39-5.55,3.53-1,0-2.6-.08-4.09-.19-1.23-.1-3-.23-3.85-.19a9.73,9.73,0,0,0,1.36,1.68.78.78,0,0,1,.23.51,9,9,0,0,0,.81,3.4l.78,1.11a.79.79,0,0,1,.14.34,5.1,5.1,0,0,0,1.46,2.82A7.39,7.39,0,0,0,84,145.07a138.93,138.93,0,0,0,18.07,1.25c7.56-.14,28.53-1.85,30.81-2a9.32,9.32,0,0,0,4.44-6.24c.79-4.79-2.74-9.53-3-9.9l-7.83-8.31a.8.8,0,1,1,1.16-1.09l7.85,8.34a.1.1,0,0,1,0,0c.18.22,4.31,5.49,3.38,11.16a11,11,0,0,1-5.31,7.43.78.78,0,0,1-.36.13c-.23,0-23.11,1.9-31.12,2.06Z"/><line class="cls-4" x1="77.54" y1="136.18" x2="84.82" y2="138.4"/><path class="cls-3" d="M84.82,139.19l-.23,0-7.28-2.22a.79.79,0,0,1,.46-1.52l7.28,2.22a.79.79,0,0,1-.23,1.55Z"/><line class="cls-4" x1="79.27" y1="141.09" x2="84.82" y2="141.95"/><path class="cls-3" d="M84.82,142.74H84.7l-5.55-.85a.79.79,0,0,1,.24-1.57l5.55.86a.79.79,0,0,1-.12,1.57Z"/><path class="cls-3" d="M85,110.58s20.13,9.27,38.05,0c0,0-2.86-7.37-8.56-7.21,0,0-2.27-4.91-7.48-4.68a8.34,8.34,0,0,0-7.11,4.68s-2.69-2.22-4.59-1.27a5.75,5.75,0,0,0-2.51,3.49S85.79,104.16,85,110.58Z"/><path class="cls-3" d="M59.8,150.83a5.61,5.61,0,0,1-4.47-1.8c-1.73-2-1.45-4.95-1.39-5.45L53.4,86.15a.82.82,0,0,1,.78-.85h0a.83.83,0,0,1,.79.83l.55,57.47a.57.57,0,0,1,0,.13s-.36,2.67,1,4.26a4.11,4.11,0,0,0,3.27,1.25,2.47,2.47,0,0,0,1.88-.77c1.56-1.63,1.44-5.16,1.44-5.2L62.17,87a.74.74,0,0,1,.78-.75h0a.74.74,0,0,1,.79.72l1,56.28c0,.16.16,4.21-1.87,6.33A4,4,0,0,1,59.8,150.83Z"/><path class="cls-3" d="M60.13,146.85A1.18,1.18,0,1,1,59,145.58,1.22,1.22,0,0,1,60.13,146.85Z"/><path class="cls-5" d="M100.66,94.31s1.08,5.84,9.15,4.38,6-8.54,4.73-13.45,2.1-7.63,3.58-10.81.64-7.49,0-11.47,3.38-4.19,3-7.36-1.63-7,0-10.35-3.2-6.7-5.31-1.76-4.16,9.79-6,11.27a10.91,10.91,0,0,0-3.24,7.57c.14,2.36-4.77,5.21-5.91,8.86s1.82,5.76,1.19,7.45S95.67,87.58,100.66,94.31Z"/><path class="cls-5" d="M114.09,92.14s-1.75,4.51,4.48,6.94,7.81-3.36,9-7.31,4.72-4.4,7.11-6,3.64-4.92,4.9-8,4.14-1.46,5.2-3.84,1.85-5.54,4.44-7.17.64-6-2.93-3.5-7.07,5-9,5.27a8.86,8.86,0,0,0-5.49,3.87c-.91,1.7-5.54,1.58-7.88,3.63s-1.2,4.77-2.36,5.68S113.5,85.33,114.09,92.14Z"/><rect class="cls-3" x="62.33" y="204.81" width="10.14" height="19.02"/><line class="cls-4" x1="59.69" y1="206.08" x2="62.33" y2="206.72"/><path class="cls-3" d="M62.33,207.51l-.19,0-2.64-.64a.79.79,0,0,1,.37-1.54l2.64.64a.79.79,0,0,1,.59,1A.8.8,0,0,1,62.33,207.51Z"/><line class="cls-4" x1="59.05" y1="221.62" x2="62.33" y2="220.51"/><path class="cls-3" d="M59.05,222.41a.79.79,0,0,1-.25-1.54l3.27-1.11a.79.79,0,1,1,.51,1.5l-3.27,1.11A.78.78,0,0,1,59.05,222.41Z"/><line class="cls-4" x1="59.16" y1="216.23" x2="62.33" y2="216.23"/><path class="cls-3" d="M62.33,216.86H59.16a.79.79,0,1,1,0-1.58h3.17a.79.79,0,1,1,0,1.58Z"/><line class="cls-4" x1="59.16" y1="210.52" x2="62.33" y2="211.15"/><path class="cls-3" d="M62.33,212l-.16,0L59,211.3a.8.8,0,0,1-.62-.94.81.81,0,0,1,.93-.62l3.17.64a.79.79,0,0,1-.15,1.57Z"/><path class="cls-3" d="M107,108.73a.79.79,0,0,1-.79-.72c-.12-1.31-2.75-32.26,6.15-48.35a.79.79,0,0,1,1.07-.31.78.78,0,0,1,.31,1.08c-3.57,6.46-5.73,16.7-6.25,29.62a153.92,153.92,0,0,0,.3,17.82.79.79,0,0,1-.72.86Z"/><path class="cls-3" d="M113.05,109.66a.74.74,0,0,1-.25,0,.79.79,0,0,1-.5-1,118.35,118.35,0,0,1,6.09-14.21c5.16-10.12,10.55-16.85,16-20a.8.8,0,0,1,.79,1.38c-12.48,7.19-21.32,33.09-21.41,33.35A.79.79,0,0,1,113.05,109.66Z"/><path class="cls-6" d="M107,108.73a.79.79,0,0,1-.79-.72s-.25-2.93-.37-7.24c0-.43.34-.57.77-.89h0a.87.87,0,0,1,.79.85c.11,4.25.36,7.07.36,7.1a.81.81,0,0,1-.72.88Z"/><path class="cls-6" d="M113.05,109.66a.74.74,0,0,1-.25,0,.79.79,0,0,1-.5-1c0-.06.53-1.59,1.5-4a.8.8,0,0,1,1-.44.79.79,0,0,1,.44,1c-1,2.39-1.46,3.92-1.47,3.94A.79.79,0,0,1,113.05,109.66Z"/></g></g></svg>