<svg xmlns="http://www.w3.org/2000/svg" viewBox="0 0 512 512.13"><defs><style>.cls-1{fill:#e30613;}</style></defs><title>variety</title><g id="Layer_2" data-name="Layer 2"><g id="Layer_1-2" data-name="Layer 1"><path class="cls-1" d="M16,344.89a253.13,253.13,0,0,0,35.47,65c2,2.58,1.67,4.44.71,7.46-2,6.21-4.09,12.88-3.78,19.24.77,15.45,9,26.7,23.34,32.57,14.54,6,28.27,3.46,39.91-7.13,11.32-10.31,15-23.43,11-38.16-6-21.63-28.56-33.09-49.72-25.41-3.25,1.18-4.68.61-6.38-2.06-3.21-5-6.93-9.78-10.09-14.86a235.74,235.74,0,0,1-33.87-93.46c-3.2-23.44-3.3-46.85.72-70.12,9.6-55.63,35.33-102.56,78.07-139.51C150.13,36.24,207.1,17,271.64,21.05c11.25.71,22.4,2.89,33.63,4.11,6.51.71,11.05-2.65,11.75-8,.78-5.91-2.61-10.59-8.89-11.84a258.65,258.65,0,0,0-100.68-.69c-44.37,8.57-83.9,27.48-118,57.12C41.86,103,12.78,154.7,3,217c-1.11,7-2,14.07-3,21.1v34A47.82,47.82,0,0,1,.88,277,256.83,256.83,0,0,0,16,344.89Zm70.25,71.27a17.93,17.93,0,0,1,0,35.85c-9.7.08-18.27-8.57-18-18.21S76.68,416.05,86.21,416.16Z"/><path class="cls-1" d="M496.05,167.4A254.42,254.42,0,0,0,460.3,102c-1.68-2.23-1.83-3.92-.59-6.58a44.42,44.42,0,0,0,4-12.73C465.94,66,456,49.44,440.4,43c-15.83-6.51-33.3-1.85-44.43,11.85-10.07,12.39-10.7,31.36-1.48,44.75a37.81,37.81,0,0,0,43.61,14.47c3.77-1.33,5.58-.92,8,2.46,23.14,32.18,37.73,67.7,43.27,107,4.34,30.88,3.07,61.45-5.11,91.51-19,69.77-61,121-125.67,153.22a219.17,219.17,0,0,1-113.51,23.05c-9.93-.64-19.84-1.89-29.74-3-8.47-.94-14.56,5.32-12.26,12.93,1.73,5.75,6.65,7,11.73,7.69,8.72,1.15,17.45,2.12,26.18,3.16h33c7-1,14.07-1.85,21.08-2.95,62.26-9.8,113.91-38.84,155.18-86.29C480,388.68,498.9,349,507.53,304.55c1.7-8.78,2.34-17.77,3.52-26.66a33.93,33.93,0,0,1,.95-3.76v-34a48.13,48.13,0,0,1-.88-4.86A257,257,0,0,0,496.05,167.4ZM425.67,96.13c-9.58-.2-17.75-8.58-17.64-18.09a17.92,17.92,0,0,1,35.84,0C444,87.8,435.34,96.33,425.67,96.13Z"/><path class="cls-1" d="M364.2,171.07c-1.19-4.83-3.86-8.24-8.86-8.95-9-1.28-18.06-3-27.1-3.06-8,0-15.94,2-23.72,3.07.51-6,1.42-12.4,1.51-18.82.48-33.89-14.93-58.82-43.49-76.21-4.43-2.7-8.64-2.58-13.11.11C221,84.29,206,109.05,206,142.46c0,6.74,1,13.48,1.55,20.46-1.93-.53-3.79-1.09-5.68-1.55a90.13,90.13,0,0,0-43.94.16c-5.8,1.44-9.25,4.72-10.56,10.56-6.38,28.28-2,54.16,16.92,76.86.91,1.09,1.7,2.28,2.78,3.75-3,.6-5.41,1.13-7.84,1.56-6.61,1.14-11.09,4.73-12,11.53-1.1,8.55-2.49,17.17-2.36,25.74.67,43.3,38.48,80.79,81.84,81.59,6.24.12,12.49,0,19.16,0V378c0,19-.15,38,.14,57a16.77,16.77,0,0,0,3.27,9.45c2.51,3.24,6.71,3.57,10.54,1.85,4.22-1.89,6.09-5.42,6.09-10q0-29.25,0-58.49v-5.63c1.63.07,2.76.05,3.87.2,11.68,1.56,23.25,1.21,34.61-2.09,41.66-12.12,67.56-50.59,62.17-93.81-2.67-21.38-4-20.1-20.83-23.62-.12,0-.21-.2-.72-.7,1-1.23,1.79-2.27,2.63-3.29C366.8,225.82,371.25,199.68,364.2,171.07ZM166.4,180.5c36.59-7.19,71.34,15.58,78.2,51.62,1.42,7.52.52,15.52.19,23.27-.06,1.32-2.56,3.41-4.15,3.65C194.7,265.94,157.16,226.33,166.4,180.5Zm78.49,167.64c-.3,1.5-2,3.61-3.42,3.87-44.45,8.35-85.71-33.38-74.93-78.56,39.28-7.8,69.16,18.58,76.79,46.09C245.94,329,246.81,338.51,244.89,348.14Zm11-151.17c-39.43-25.69-38.81-81.45-4-107.41,2.1-1.57,3.73-3.19,6.9-1C296.08,113.87,294.65,173.81,255.93,197Zm89.74,76.68c7,36.64-15.11,70.69-51.17,78.05-7.64,1.56-15.83.55-23.76.3-1.28,0-3.35-2.2-3.59-3.63C259.57,303.86,300,263.35,345.67,273.65ZM271.06,259a6,6,0,0,1-3.91-3.94C264,233.5,269.53,214.43,285,198.88c16.79-16.87,37.1-23,60.48-18.55C355.64,225.4,316.45,266.71,271.06,259Z"/><path class="cls-1" d="M348,38a10,10,0,0,0,10-10.18A9.81,9.81,0,0,0,348.27,18,9.67,9.67,0,0,0,338,27.77,10.29,10.29,0,0,0,348,38Z"/><path class="cls-1" d="M164.13,474.4c-5.29.13-10.18,5.36-9.88,10.56A10.48,10.48,0,0,0,165,494.51a10.07,10.07,0,0,0,9.59-10.16C174.54,479.11,169.42,474.26,164.13,474.4Z"/></g></g></svg>