<?xml version="1.0" encoding="utf-8"?>
<!-- Generator: Adobe Illustrator 22.0.1, SVG Export Plug-In . SVG Version: 6.00 Build 0)  -->
<svg version="1.1" id="Layer_1" xmlns="http://www.w3.org/2000/svg" xmlns:xlink="http://www.w3.org/1999/xlink" x="0px" y="0px"
	 viewBox="0 0 588.4 238.3" style="enable-background:new 0 0 588.4 238.3;" xml:space="preserve">
<style type="text/css">
	.st0{fill:#348F41;}
	.st1{fill:#2B2523;}
	.st2{fill:#E31119;}
</style>
<g>
	<g>
		<g>
			<path class="st0" d="M240.4,139.1c0.1,0.3,0.1,0.7,0.1,1.2c0,1.1-0.4,2.1-1.2,3c-0.8,0.9-1.8,1.3-3.1,1.3h-7.1
				c-1.1,0-2-0.3-2.8-1c-0.8-0.7-1.3-1.5-1.4-2.6l-6.1-30.5h-0.9l-3.4,11.9v17.8c0,1.1-0.4,2.1-1.2,3c-0.8,0.9-1.9,1.3-3.1,1.3h-7.6
				c-1.1,0-2.1-0.4-2.9-1.3c-0.9-0.9-1.3-1.9-1.3-3V55.4c0-1.2,0.4-2.2,1.3-3.1c0.9-0.9,1.8-1.3,2.9-1.3h7.6c1.3,0,2.3,0.4,3.1,1.3
				c0.8,0.9,1.2,1.9,1.2,3.1v37.8h1.1c1.2-6.5,2.5-13,4-19.4c1.5-6.4,2.9-12.8,4.3-19.4c0.2-1,0.8-1.9,1.6-2.5
				c0.8-0.6,1.7-0.9,2.7-0.9h6.4c1.3,0,2.3,0.5,3.1,1.4c0.8,0.9,1.2,1.9,1.2,3c0,0.5,0,0.9,0,1.2l-9.5,37.3L240.4,139.1z"/>
			<path class="st0" d="M262,62.4c0,1.2-0.4,2.2-1.3,3c-0.9,0.8-1.9,1.2-3.1,1.2h-6.2c-1.1,0-2.1-0.4-2.9-1.2
				c-0.9-0.8-1.3-1.8-1.3-3v-7c0-1.2,0.4-2.2,1.3-3.1c0.9-0.9,1.9-1.3,2.9-1.3h6.2c1.2,0,2.2,0.4,3.1,1.3c0.9,0.9,1.3,1.9,1.3,3.1
				V62.4z M262,140.3c0,1.1-0.4,2.1-1.3,3c-0.9,0.9-1.9,1.3-3.1,1.3h-6.2c-1.1,0-2.1-0.4-2.9-1.3c-0.9-0.9-1.3-1.9-1.3-3V80
				c0-1.3,0.4-2.3,1.3-3.1c0.9-0.8,1.9-1.2,2.9-1.2h6.2c1.2,0,2.2,0.4,3.1,1.2c0.9,0.8,1.3,1.8,1.3,3.1V140.3z"/>
			<path class="st0" d="M285.6,140.3c0,1.1-0.4,2.1-1.3,3c-0.9,0.9-1.9,1.3-3.1,1.3H275c-1.1,0-2.1-0.4-2.9-1.3
				c-0.9-0.9-1.3-1.9-1.3-3V55.4c0-1.2,0.4-2.2,1.3-3.1c0.9-0.9,1.8-1.3,2.9-1.3h6.1c1.2,0,2.2,0.4,3.1,1.3c0.9,0.9,1.3,1.9,1.3,3.1
				V140.3z"/>
			<path class="st0" d="M330.8,128.7c0,2.5-0.5,4.9-1.5,7c-1,2.1-2.4,3.9-4.1,5.4c-1.7,1.4-3.7,2.6-5.9,3.5c-2.2,0.9-4.6,1.3-7,1.3
				c-2.7,0-5.1-0.4-7.4-1.3c-2.3-0.8-4.3-2-6-3.5c-1.7-1.5-3-3.3-3.9-5.4c-1-2.1-1.4-4.5-1.4-7V91.6c0-2.6,0.5-5,1.4-7.1
				c0.9-2.1,2.3-4,3.9-5.5c1.7-1.5,3.7-2.7,6-3.5c2.3-0.8,4.7-1.2,7.4-1.2c2.4,0,4.8,0.4,7,1.2c2.2,0.8,4.2,1.9,5.9,3.5
				c1.7,1.5,3.1,3.4,4.1,5.5c1,2.1,1.5,4.5,1.5,7.1V128.7z M316.1,91.2c0-1.2-0.3-2-1-2.6c-0.7-0.6-1.5-0.8-2.7-0.8
				c-1.2,0-2.1,0.3-2.9,0.8c-0.7,0.6-1.1,1.4-1.1,2.6v37.6c0,1.1,0.4,1.9,1.1,2.5c0.8,0.6,1.7,0.9,2.9,0.9c1.1,0,2-0.3,2.7-0.9
				c0.7-0.6,1-1.4,1-2.5V91.2z"/>
			<path class="st0" d="M394.7,122.8c0,3.1-0.5,6-1.4,8.7c-0.9,2.7-2.2,5.1-4,7.2c-1.7,2.1-3.9,3.8-6.4,5.1c-2.6,1.3-5.5,2-8.7,2
				c-3.2,0-6.2-0.6-8.8-1.6c-2.6-1.1-4.9-2.5-6.8-4.2c-1.9-1.7-3.3-3.7-4.4-5.8c-1-2.2-1.5-4.4-1.5-6.8v-6.3c0-1.3,0.4-2.3,1.2-3.1
				c0.8-0.8,1.8-1.2,3-1.2h6.4c1.2,0,2.2,0.4,3.1,1.3c0.9,0.8,1.3,1.9,1.3,3.2v2.4c0,1.8,0.5,3.3,1.5,4.5c1,1.2,2.4,1.7,4.1,1.7
				c3.5,0,5.2-2,5.2-6.2c0-1.7-0.2-3.5-0.8-5.3c-0.5-1.8-1.3-3.6-2.4-5.4c-1.1-1.8-2.4-3.6-3.9-5.4c-1.5-1.8-3.3-3.8-5.2-6
				c-3.9-4-7-8.5-9.3-13.3c-2.3-4.9-3.5-10-3.5-15.3c0-3.2,0.4-6.2,1.3-9c0.9-2.8,2.3-5.2,4.1-7.2c1.8-2,4-3.6,6.6-4.8
				c2.6-1.2,5.6-1.8,9-1.8c2.7,0,5.3,0.5,7.7,1.5c2.4,1,4.5,2.4,6.2,4.1c1.7,1.7,3.1,3.7,4.1,5.8c1,2.2,1.5,4.4,1.5,6.8v6.4
				c0,1.2-0.4,2.2-1.2,3c-0.8,0.8-1.8,1.2-3.2,1.2h-6.4c-1.2,0-2.2-0.4-3-1.2c-0.8-0.8-1.2-1.8-1.2-3v-3.2c0-1.7-0.4-3-1.2-4
				c-0.8-1-1.9-1.5-3.3-1.5c-1.3,0-2.5,0.5-3.5,1.5c-1,1-1.5,2.3-1.5,4c0,1.6,0.2,3.2,0.5,4.5c0.3,1.3,0.8,2.7,1.6,4.2
				c0.7,1.5,1.8,3.1,3.2,4.9c1.4,1.8,3.1,4,5.3,6.6c0.2,0.3,0.3,0.6,0.5,0.9c0.2,0.3,0.4,0.5,0.5,0.8c1.7,2,3.3,4.1,5,6.3
				c1.6,2.1,3.1,4.4,4.3,6.8c1.2,2.4,2.2,5,3,7.7C394.3,116.8,394.7,119.7,394.7,122.8z"/>
			<path class="st0" d="M438.5,139.3c0,0.1,0,0.4,0,0.8c0,1.1-0.4,2.1-1.2,3c-0.8,0.9-1.8,1.3-3.1,1.3h-5c-0.9,0-1.5-0.4-1.6-1.3
				l-0.4-2.5h-0.8c-1,1.6-2.4,2.8-4.1,3.7c-1.7,0.9-3.7,1.4-6,1.4c-4.9,0-8.8-1.5-11.8-4.6c-3-3-4.5-7.2-4.5-12.6c0-3.9,0.3-7,1-9.3
				c0.7-2.2,1.5-4.1,2.6-5.5c1.1-1.5,2.3-2.8,3.7-4.1c1.4-1.3,2.7-2.4,4.1-3.3c3.3-2.1,7.1-3.7,11.5-5V91.2c0-1.2-0.2-2-0.7-2.6
				c-0.4-0.6-1.2-0.8-2.2-0.8c-1.1,0-1.8,0.3-2.2,0.8c-0.4,0.6-0.6,1.4-0.6,2.6v1.7c0,1.2-0.5,2.2-1.4,3c-0.9,0.8-1.9,1.2-3,1.2H406
				c-1.1,0-2.1-0.4-3-1.2c-0.9-0.8-1.3-1.8-1.3-3v-1.3c0-2.6,0.5-5,1.5-7.1c1-2.1,2.4-4,4.1-5.5c1.7-1.5,3.7-2.7,5.9-3.5
				c2.2-0.8,4.7-1.2,7.3-1.2c2.5,0,4.8,0.4,7,1.2c2.1,0.8,3.9,1.9,5.4,3.5c1.4,1.5,2.6,3.4,3.5,5.5c0.9,2.1,1.3,4.5,1.3,7.1v38.8
				c0,1.5,0.1,3,0.2,4.4C438.1,136.2,438.3,137.8,438.5,139.3z M422.9,114.3c-1.3,0.5-2.5,1-3.4,1.7c-1,0.6-1.7,1.3-2.3,2.1
				c-0.6,0.8-1.1,1.6-1.5,2.5c-0.4,0.9-0.5,3.5-0.5,7.7c0,2.7,1.3,4,3.9,4c2.5,0,3.8-1.4,3.8-4V114.3z"/>
			<path class="st0" d="M483,140.3c0,1.1-0.4,2.1-1.3,3c-0.8,0.9-1.8,1.3-3,1.3h-6.2c-1.2,0-2.2-0.4-3-1.3c-0.8-0.9-1.3-1.9-1.3-3
				V91.2c0-1.2-0.4-2-1.1-2.6c-0.7-0.6-1.7-0.8-2.8-0.8c-1,0-1.9,0.3-2.6,0.8c-0.7,0.6-1.1,1.4-1.1,2.6v49.1c0,1.1-0.4,2.1-1.3,3
				c-0.9,0.9-1.9,1.3-3.1,1.3h-6.1c-1.1,0-2.1-0.4-3-1.3c-0.9-0.9-1.3-1.9-1.3-3V55.4c0-1.2,0.4-2.2,1.3-3.1c0.9-0.9,1.8-1.3,3-1.3
				h6.1c1.2,0,2.2,0.4,3.1,1.3c0.9,0.9,1.3,1.9,1.3,3.1v23.2h0.8c1.2-1.3,2.6-2.4,4.3-3.1c1.7-0.7,3.5-1.1,5.3-1.1
				c1.7,0,3.2,0.2,4.6,0.8c1.4,0.5,2.7,1.3,3.9,2.4c1.2,1.1,2,2.3,2.6,3.8c0.5,1.5,0.8,3,0.8,4.7V140.3z"/>
			<path class="st0" d="M506.1,62.4c0,1.2-0.4,2.2-1.3,3c-0.9,0.8-1.9,1.2-3.1,1.2h-6.2c-1.1,0-2.1-0.4-2.9-1.2
				c-0.9-0.8-1.3-1.8-1.3-3v-7c0-1.2,0.4-2.2,1.3-3.1c0.9-0.9,1.8-1.3,2.9-1.3h6.2c1.2,0,2.2,0.4,3.1,1.3c0.8,0.9,1.3,1.9,1.3,3.1
				V62.4z M506.1,140.3c0,1.1-0.4,2.1-1.3,3c-0.9,0.9-1.9,1.3-3.1,1.3h-6.2c-1.1,0-2.1-0.4-2.9-1.3c-0.9-0.9-1.3-1.9-1.3-3V80
				c0-1.3,0.4-2.3,1.3-3.1c0.9-0.8,1.8-1.2,2.9-1.2h6.2c1.2,0,2.2,0.4,3.1,1.2c0.8,0.8,1.3,1.8,1.3,3.1V140.3z"/>
			<path class="st0" d="M552,140.3c0,1.1-0.4,2.1-1.3,3c-0.8,0.9-1.8,1.3-3.1,1.3h-6.2c-1.2,0-2.2-0.4-3.1-1.3
				c-0.8-0.9-1.2-1.9-1.2-3V91.2c0-1.2-0.4-2-1.1-2.6c-0.7-0.6-1.7-0.8-2.8-0.8c-1,0-1.9,0.3-2.6,0.8c-0.7,0.6-1.1,1.4-1.1,2.6v49.1
				c0,1.1-0.4,2.1-1.3,3c-0.8,0.9-1.9,1.3-3.1,1.3h-6.1c-1.1,0-2.1-0.4-3-1.3c-0.9-0.9-1.3-1.9-1.3-3V55.4c0-1.2,0.4-2.2,1.3-3.1
				c0.9-0.9,1.8-1.3,3-1.3h6.1c1.2,0,2.2,0.4,3.1,1.3c0.9,0.9,1.3,1.9,1.3,3.1v23.2h0.8c1.2-1.3,2.6-2.4,4.3-3.1
				c1.7-0.7,3.5-1.1,5.3-1.1c1.6,0,3.2,0.2,4.6,0.8c1.4,0.5,2.7,1.3,3.9,2.4c1.2,1.1,2,2.3,2.6,3.8c0.6,1.5,0.8,3,0.8,4.7V140.3z"/>
			<path class="st0" d="M575.2,62.4c0,1.2-0.4,2.2-1.3,3c-0.8,0.8-1.9,1.2-3.1,1.2h-6.1c-1.1,0-2.1-0.4-3-1.2
				c-0.9-0.8-1.3-1.8-1.3-3v-7c0-1.2,0.4-2.2,1.3-3.1c0.9-0.9,1.9-1.3,3-1.3h6.1c1.2,0,2.2,0.4,3.1,1.3c0.9,0.9,1.3,1.9,1.3,3.1
				V62.4z M575.2,140.3c0,1.1-0.4,2.1-1.3,3c-0.8,0.9-1.9,1.3-3.1,1.3h-6.1c-1.1,0-2.1-0.4-3-1.3c-0.9-0.9-1.3-1.9-1.3-3V80
				c0-1.3,0.4-2.3,1.3-3.1c0.9-0.8,1.9-1.2,3-1.2h6.1c1.2,0,2.2,0.4,3.1,1.2c0.9,0.8,1.3,1.8,1.3,3.1V140.3z"/>
		</g>
		<g>
			<path class="st1" d="M196.4,179.4v-21.7h6.9c2.1,0,3.7,0.6,5,1.7c1.2,1.1,1.8,2.6,1.8,4.5c0,1.3-0.3,2.4-0.9,3.3
				c-0.6,1-1.5,1.7-2.6,2.1c-1.1,0.4-2.7,0.7-4.7,0.7h-2.3v9.4H196.4z M202.8,160.4h-3.2v6.8h3.4c1.3,0,2.2-0.3,2.9-0.9
				c0.7-0.6,1-1.4,1-2.6C206.9,161.6,205.5,160.4,202.8,160.4z"/>
			<path class="st1" d="M223.5,157.4c3.3,0,6.1,1.1,8.4,3.2c2.2,2.1,3.3,4.8,3.3,8c0,3.2-1.1,5.8-3.4,7.9c-2.2,2.1-5.1,3.1-8.5,3.1
				c-3.3,0-6-1.1-8.1-3.1c-2.2-2.1-3.3-4.7-3.3-7.9c0-3.2,1.1-5.9,3.3-8C217.3,158.5,220.1,157.4,223.5,157.4z M223.6,160.3
				c-2.5,0-4.5,0.8-6.1,2.3c-1.6,1.6-2.4,3.5-2.4,5.9c0,2.3,0.8,4.3,2.4,5.8c1.6,1.5,3.6,2.3,6,2.3c2.4,0,4.4-0.8,6.1-2.4
				c1.6-1.6,2.4-3.5,2.4-5.9c0-2.3-0.8-4.2-2.4-5.8C227.9,161.1,225.9,160.3,223.6,160.3z"/>
			<path class="st1" d="M265.3,157.7h3.1l-8.7,21.8h-0.7l-7.1-17.6l-7.2,17.6H244l-8.7-21.8h3.1l6,14.9l6-14.9h2.9l6,14.9
				L265.3,157.7z"/>
			<path class="st1" d="M270.8,157.7h12.3v2.8h-9.2v6.6h8.9v2.8h-8.9v6.7h9.5v2.7h-12.6V157.7z"/>
			<path class="st1" d="M286.8,179.4v-21.7h5.4c2.2,0,4,0.5,5.2,1.6c1.3,1.1,1.9,2.6,1.9,4.4c0,1.3-0.3,2.4-0.9,3.3
				c-0.6,0.9-1.5,1.6-2.7,2.1c0.7,0.4,1.4,1.1,2,1.9c0.7,0.8,1.6,2.2,2.8,4.1c0.8,1.2,1.4,2.1,1.8,2.8l1.2,1.5h-3.7l-0.9-1.4
				c0-0.1-0.1-0.1-0.2-0.3l-0.6-0.8l-1-1.6l-1-1.7c-0.6-0.9-1.2-1.6-1.8-2.1c-0.5-0.5-1-0.9-1.4-1.1c-0.4-0.2-1.1-0.4-2.1-0.4h-0.8
				v9.4H286.8z M290.8,160.3h-0.9v6.8h1.2c1.6,0,2.7-0.1,3.2-0.4c0.6-0.3,1.1-0.7,1.4-1.2c0.3-0.5,0.5-1.2,0.5-1.9
				c0-0.7-0.2-1.3-0.5-1.9c-0.4-0.6-0.9-0.9-1.5-1.2C293.4,160.4,292.3,160.3,290.8,160.3z"/>
			<path class="st1" d="M305.8,157.7h12.3v2.8h-9.2v6.6h8.9v2.8h-8.9v6.7h9.5v2.7h-12.6V157.7z"/>
			<path class="st1" d="M321.7,179.3v-21.6h7.3c2.9,0,5.3,0.5,7,1.3c1.7,0.9,3.1,2.2,4.1,3.9c1,1.7,1.5,3.6,1.5,5.6
				c0,1.4-0.3,2.8-0.8,4.1c-0.6,1.3-1.4,2.5-2.4,3.5c-1.1,1-2.3,1.8-3.7,2.3c-0.8,0.3-1.6,0.5-2.2,0.6c-0.7,0.1-2,0.1-3.9,0.1H321.7
				z M328.7,160.5h-3.9v16.1h4c1.5,0,2.8-0.1,3.6-0.3c0.8-0.2,1.6-0.5,2.1-0.8c0.6-0.3,1.1-0.7,1.6-1.2c1.5-1.6,2.3-3.5,2.3-5.9
				c0-2.3-0.8-4.2-2.4-5.7c-0.6-0.5-1.2-1-2-1.3c-0.8-0.4-1.4-0.6-2.1-0.7C331.3,160.5,330.2,160.5,328.7,160.5z"/>
			<path class="st1" d="M361.7,179.4h-7.3v-21.7h5.7c1.8,0,3.2,0.2,4.2,0.7c1,0.5,1.8,1.1,2.3,2c0.5,0.8,0.8,1.8,0.8,2.9
				c0,2.1-1.1,3.7-3.3,4.6c1.6,0.3,2.8,0.9,3.8,2c0.9,1,1.4,2.2,1.4,3.6c0,1.1-0.3,2.1-0.8,3c-0.6,0.9-1.4,1.6-2.5,2.1
				C364.7,179.1,363.3,179.4,361.7,179.4z M360.1,160.5h-2.7v6.5h2.1c1.7,0,2.8-0.3,3.5-0.9c0.7-0.6,1-1.4,1-2.5
				C364.1,161.5,362.8,160.5,360.1,160.5z M360.4,169.7h-2.9v6.9h3.1c1.7,0,2.8-0.1,3.5-0.4c0.6-0.3,1.1-0.7,1.5-1.2
				c0.4-0.5,0.5-1.2,0.5-1.8c0-0.7-0.2-1.3-0.6-1.8c-0.4-0.5-0.9-1-1.7-1.2C363,169.9,361.9,169.7,360.4,169.7z"/>
			<path class="st1" d="M385.3,157.7h3.8l-8,10.2v11.4h-3.2v-11.4l-8-10.2h3.7l5.8,7.5L385.3,157.7z"/>
			<path class="st2" d="M404,157.6h2.2l9.7,21.8h-3.2l-2.9-6.4h-9.2l-2.7,6.4h-3.2L404,157.6z M408.5,170.2l-3.5-7.8l-3.2,7.8H408.5
				z"/>
			<path class="st2" d="M418.2,157.7h12.3v2.8h-9.2v6.6h8.9v2.8h-8.9v6.7h9.5v2.7h-12.6V157.7z"/>
			<path class="st2" d="M441,157.6h2.2l9.7,21.8h-3.2l-2.9-6.4h-9.2l-2.7,6.4h-3.2L441,157.6z M445.6,170.2l-3.5-7.8l-3.2,7.8H445.6
				z"/>
			<path class="st2" d="M464.1,157.7h3.1v18.9h9.7v2.8h-12.8V157.7z"/>
			<path class="st2" d="M479.7,157.7h3.1v21.7h-3.1V157.7z"/>
			<path class="st2" d="M504.9,157.7h2.9v21.7h-3.1v-16.8l-6.7,8.4h-0.6l-6.7-8.4v16.8h-3.1v-21.7h2.9l7.2,8.9L504.9,157.7z"/>
			<path class="st2" d="M512.5,157.7h3.1v21.7h-3.1V157.7z"/>
			<path class="st2" d="M518.5,157.7h18.1v2.8h-7.6v18.9H526v-18.9h-7.4V157.7z"/>
			<path class="st2" d="M539.6,157.7h12.3v2.8h-9.2v6.6h8.9v2.8h-8.9v6.7h9.5v2.7h-12.6V157.7z"/>
			<path class="st2" d="M555.5,179.3v-21.6h7.3c2.9,0,5.3,0.5,7,1.3c1.7,0.9,3.1,2.2,4.1,3.9c1,1.7,1.5,3.6,1.5,5.6
				c0,1.4-0.3,2.8-0.8,4.1c-0.6,1.3-1.4,2.5-2.4,3.5c-1.1,1-2.3,1.8-3.7,2.3c-0.8,0.3-1.6,0.5-2.2,0.6c-0.7,0.1-2,0.1-3.9,0.1H555.5
				z M562.4,160.5h-3.9v16.1h4c1.5,0,2.8-0.1,3.6-0.3c0.9-0.2,1.6-0.5,2.1-0.8c0.6-0.3,1.1-0.7,1.6-1.2c1.5-1.6,2.3-3.5,2.3-5.9
				c0-2.3-0.8-4.2-2.4-5.7c-0.6-0.5-1.2-1-2-1.3c-0.8-0.4-1.5-0.6-2.2-0.7C565,160.5,563.9,160.5,562.4,160.5z"/>
		</g>
	</g>
	<g>
		<g>
			<g>
				<path class="st1" d="M120.3,82.2c2.8-3.5,0.9-4.1,0.9-4.1c-9.7-3.8-18.9-5.5-27.3-6.2v-2.2h-5.8V61H85v8.8h-5.8V72
					c-14.1,1.2-23.9,5-26.3,5.7c-3.2,0.9-0.6,4.3-0.6,4.3c4.9,10.1,2.4,17.2,0.6,23.1c-1.9,6,4.3,2.8,4.3,2.8c6.2-2,13-3.1,19.8-3.6
					v18.1h5.4V135h8.4v-12.5h5.4v-18.1c8.9,0.6,16.1,2.1,19.4,3.3c7.6,3,4.6-2.6,4.6-2.6C116.4,95.5,118.1,85,120.3,82.2z
					 M113.4,95.9H59.7V81.5h53.7V95.9z"/>
			</g>
			<g>
				<path class="st1" d="M89.5,186.6c8.8-6.4,9.2-11.1,9.2-11.1s1.8-9.7,5.5-29c2.5-13-6-18.3-11.9-20.4v7
					c9.2,4.5,5.9,13.8,5.9,13.8l-6.5,30.4h-11c0,0-4.1-18-6.5-31.3c-1.3-7.6,2.7-11.3,6.5-13.1v-6.9c-15.5,4.6-13.4,19.6-13.4,19.6
					s4.6,19.3,6,27.6c1.4,8.3,4.6,9.2,8.3,12c3.7,2.8-0.9,8.8-6.5,14.3c-5.5,5.5-6,12.4-6,12.4c-0.9,17.5,14.3,17.9,14.3,17.9
					c17.5,0,15.2-13.8,15.7-16.6c0.5-2.8,0-2.8,2.8-4.6s1.8-3.2,1.8-3.2c-2.3-2.8-10.1,1.4-11.1,6.4c-0.9,5.1-5.5,9.2-10.6,5.5
					c-5.1-3.7,0.9-12.9,4.1-19.8C89.5,190.8,89.5,186.6,89.5,186.6z"/>
			</g>
			<g>
				<path class="st1" d="M107.7,52.6l-6.3-21c-2.3-7.8-8.7-13.9-14.5-13.9c-5.8,0-12.2,6.1-14.5,13.9l-6.3,21
					c-1.2,4-0.6,7.8,1.5,10.7c2.2,2.9,5.7,4.5,9.8,4.5H83v-4.5h-5.5c-2.7,0-4.9-1-6.2-2.7c-1.3-1.7-1.6-4.1-0.8-6.7l6.3-21
					c1.9-6.3,6.8-10.7,10.2-10.7c3.3,0,8.3,4.4,10.2,10.7l6.3,21c0.8,2.6,0.5,4.9-0.8,6.7c-1.3,1.8-3.5,2.7-6.2,2.7h-6.7v4.5h6.7
					c4.1,0,7.6-1.6,9.8-4.5C108.4,60.3,108.9,56.5,107.7,52.6z"/>
			</g>
			<g>
				<path class="st1" d="M86.7,88.5l-0.3-0.3v-3.4l0.8-0.8l0.4,0.5v3.1L86.7,88.5z M87.6,89.7v3.1l-0.4,0.4l-0.8-0.7v-3.4l0.3-0.3
					L87.6,89.7z M91.1,84.5h-3.2l-0.6-0.6l0.6-0.6h3.2l0.6,0.6L91.1,84.5z M91.7,93.4L91.1,94h-3.2l-0.6-0.6l0.6-0.6h3.2L91.7,93.4z
					 M91.4,87.6v-3.1l0.4-0.5l0.7,0.8v3.4l-0.3,0.3L91.4,87.6z M92.3,88.8l0.3,0.3v3.4l-0.7,0.7l-0.4-0.4v-3.1L92.3,88.8z"/>
				<path class="st1" d="M95.3,94h-1.2v-1.2h1.2V94z"/>
				<path class="st1" d="M97.9,84.8v2.8L97,88.5l-0.3-0.3v-3.8L97.9,84.8z M96.7,92.9v-3.8l0.3-0.3l0.9,0.9v2.8L96.7,92.9z
					 M101.9,94h-4.4c-0.4-0.1-0.7-0.3-0.7-0.7l1.2-0.4h3.5L101.9,94z M101.4,84.5h-3.5l-1.2-0.5c0.1-0.4,0.3-0.6,0.7-0.7h4.4
					L101.4,84.5z M101.7,87.6v-3.1l0.5-1.2c0.4,0.1,0.6,0.3,0.7,0.7v4.1l-0.3,0.3L101.7,87.6z M102.6,88.8l0.3,0.3v4.1
					c-0.1,0.4-0.4,0.7-0.7,0.7l-0.5-1.2v-3.1L102.6,88.8z"/>
				<path class="st1" d="M105.6,84.8v2.8l-0.9,0.9l-0.3-0.3v-3.8L105.6,84.8z M104.4,92.9v-3.8l0.3-0.3l0.9,0.9v2.8L104.4,92.9z
					 M109.5,94h-4.4c-0.4-0.1-0.6-0.3-0.7-0.7l1.2-0.4h3.5L109.5,94z M109.1,84.5h-3.5l-1.2-0.5c0.1-0.4,0.3-0.6,0.7-0.7h4.4
					L109.1,84.5z M109.4,87.6v-3.1l0.5-1.2c0.4,0.1,0.6,0.3,0.7,0.7v4.1l-0.3,0.3L109.4,87.6z M110.3,88.8l0.3,0.3v4.1
					c-0.1,0.4-0.4,0.7-0.7,0.7l-0.5-1.2v-3.1L110.3,88.8z"/>
			</g>
		</g>
		<g>
			<path class="st0" d="M84.7,213.8c0.5,0.4,1,0.6,1.3,0.6c0.7,0,1.9-1.3,2.2-3.2c0.1-0.3,0.2-0.6,0.3-0.9c-0.6,0-1.3,0.1-1.9,0.1
				c-0.4,0-0.8,0-1.2,0C84.8,211.9,84.5,213.2,84.7,213.8z"/>
			<path class="st0" d="M108.8,40.2l3.3,11.1c1.6,5.4,0.8,10.6-2.2,14.7c-0.9,1.3-2.1,2.3-3.4,3.2c5.6,1.1,11.1,2.7,16.4,4.8
				c0.9,0.3,2.6,1.4,3.2,3.4c1.1,3.5-1.4,6.6-2.3,7.7c-1,1.4-2.7,10,0.6,18.3c0.6,1.2,1.8,4.3,0.1,7c-1.1,1.8-3,2.8-5.4,2.8l0,0
				c-1.5,0-3.1-0.4-5.2-1.2c-2.2-0.8-6.9-1.9-13.3-2.6v16.1c6.8,4.9,9.7,12.5,8,21.9l-5.5,29c-0.1,1.1-1.2,6.1-9.4,12.6
				c-0.4,2.2-1.2,5.9-3.4,10.5c-0.5,1.2-1.2,2.4-1.8,3.6c-0.8,1.7-2.3,4.6-3.2,7.1c0.4,0,0.8,0,1.2,0c0.7,0,1.3-0.1,1.9-0.1
				c1.6-5.8,8.1-10.2,13-10.2c2.3,0,4.3,0.9,5.7,2.5l0.3,0.4c0.4,0.6,1.2,2.1,0.8,4.3c0,0.1-0.1,0.1-0.1,0.2
				c37.3-9.6,64.9-43.4,64.9-83.7C173.2,83.6,145.8,50,108.8,40.2z"/>
			<path class="st0" d="M78.3,188.4c-0.3-0.2-0.6-0.4-0.8-0.6c-4-2.8-7.2-5.5-8.6-13.8c-1.3-8-5.9-27.1-5.9-27.3
				c-0.8-5.7,0.6-15.8,9.5-21.7v-15.6c-5,0.6-9.5,1.5-13.6,2.8c-0.9,0.4-2.7,1.2-4.6,1.2c-2.1,0-3.9-0.9-5-2.4
				c-1.3-1.8-1.5-4.2-0.6-7.1l0.1-0.4c1.7-5.4,3.4-11-0.3-19c-0.8-1.2-2.2-3.9-1.3-6.8c0.4-1.2,1.5-3.3,4.5-4.2
				c0.3-0.1,0.7-0.2,1.3-0.4c2.6-0.9,7.7-2.6,14.4-3.9c-1.2-0.9-2.4-1.9-3.3-3.1c-3-4.1-3.9-9.3-2.2-14.7L65.2,40
				C27.7,49.5,0,83.4,0,123.8c0,40.5,27.9,74.5,65.5,83.9c0.9-3.1,2.7-7.5,6.5-11.3C76.6,191.7,77.9,189.4,78.3,188.4z"/>
		</g>
	</g>
	<path class="st1" d="M101.1,14.5l-1.5,4.1c1.2,1,2.4,2.2,3.2,3.6c0.8,1.4,1.2,3,1.4,4.6l4.3,0.8c0-2.6-0.6-5.2-2-7.5
		C105.2,17.8,103.3,15.9,101.1,14.5z"/>
	<path class="st1" d="M104,6.7l-1.5,3.9c3.2,1.7,5.8,4.2,7.7,7.4c1.8,3.2,2.5,6.8,2.4,10.4l4.1,0.8c0.5-4.6-0.4-9.2-2.7-13.3
		C111.6,11.8,108.1,8.7,104,6.7z"/>
	<path class="st1" d="M106.5,0L105,3.9c4.9,2.2,9,5.7,11.7,10.4c2.7,4.8,3.5,10.1,2.8,15.4l4.1,0.8c1-6.3,0-12.7-3.1-18.3
		C117.4,6.6,112.4,2.5,106.5,0z"/>
</g>
</svg>
